<svg width="50" height="35" viewBox="0 0 50 35" fill="none" xmlns="http://www.w3.org/2000/svg">
<path d="M0 2.5C0 1.11934 1.11934 0 2.5 0H47.5C48.8807 0 50 1.11934 50 2.5C50 3.88066 48.8807 5 47.5 5H2.5C1.11934 5 0 3.88057 0 2.5ZM47.5 15H2.5C1.11934 15 0 16.1194 0 17.5C0 18.8807 1.11934 20 2.5 20H47.5C48.8807 20 50 18.8807 50 17.5C50 16.1194 48.8807 15 47.5 15ZM47.5 30H2.5C1.11934 30 0 31.1193 0 32.5C0 33.8806 1.11934 35 2.5 35H47.5C48.8807 35 50 33.8806 50 32.5C50 31.1193 48.8807 30 47.5 30Z" fill="black"/>
</svg>
