<svg width="22" height="18" viewBox="0 0 22 18" fill="none" xmlns="http://www.w3.org/2000/svg">
<path d="M20.49 5.86464C20.5075 5.75735 20.5015 5.64753 20.4724 5.54279C20.4433 5.43804 20.3918 5.34088 20.3214 5.25803C20.251 5.17518 20.1634 5.10863 20.0648 5.06297C19.9661 5.01732 19.8587 4.99366 19.75 4.99364H1.75C1.64129 4.99366 1.53388 5.01732 1.43522 5.06297C1.33655 5.10863 1.249 5.17518 1.17861 5.25803C1.10822 5.34088 1.05668 5.43804 1.02757 5.54279C0.998456 5.64753 0.992461 5.75735 1.01 5.86464L2.535 15.1876C2.64033 15.8315 2.97113 16.4169 3.46829 16.8393C3.96546 17.2617 4.59661 17.4937 5.249 17.4936H16.251C16.9034 17.4937 17.5345 17.2617 18.0317 16.8393C18.5289 16.4169 18.8597 15.8315 18.965 15.1876L20.49 5.86464ZM18.867 6.49364L17.484 14.9456C17.4361 15.2381 17.2858 15.5041 17.06 15.6961C16.8341 15.888 16.5474 15.9935 16.251 15.9936H5.249C4.95259 15.9935 4.66588 15.888 4.44003 15.6961C4.21418 15.5041 4.0639 15.2381 4.016 14.9456L2.633 6.49364H18.867Z" fill="black"/>
<path d="M17.393 5.35764L14.393 0.357644C14.2896 0.189217 14.1239 0.0684035 13.932 0.0214641C13.74 -0.0254752 13.5372 0.00525345 13.3678 0.106971C13.1984 0.208688 13.0759 0.373173 13.0271 0.564672C12.9782 0.75617 13.007 0.959205 13.107 1.12964L16.107 6.12964C16.2104 6.29807 16.3761 6.41888 16.568 6.46582C16.76 6.51276 16.9628 6.48203 17.1322 6.38032C17.3016 6.2786 17.4241 6.11411 17.4729 5.92262C17.5218 5.73112 17.493 5.52808 17.393 5.35764ZM5.393 6.12964L8.393 1.12964C8.49304 0.959205 8.52176 0.75617 8.47292 0.564672C8.42409 0.373173 8.30164 0.208688 8.1322 0.106971C7.96276 0.00525345 7.76002 -0.0254752 7.56805 0.0214641C7.37607 0.0684035 7.21039 0.189217 7.107 0.357644L4.107 5.35764C4.00696 5.52808 3.97824 5.73112 4.02708 5.92262C4.07591 6.11411 4.19836 6.2786 4.3678 6.38032C4.53724 6.48203 4.73998 6.51276 4.93195 6.46582C5.12392 6.41888 5.28961 6.29807 5.393 6.12964ZM10 9.24364V13.2436C10 13.4426 10.079 13.6333 10.2197 13.774C10.3603 13.9146 10.5511 13.9936 10.75 13.9936C10.9489 13.9936 11.1397 13.9146 11.2803 13.774C11.421 13.6333 11.5 13.4426 11.5 13.2436V9.24364C11.5 9.04473 11.421 8.85397 11.2803 8.71331C11.1397 8.57266 10.9489 8.49364 10.75 8.49364C10.5511 8.49364 10.3603 8.57266 10.2197 8.71331C10.079 8.85397 10 9.04473 10 9.24364ZM6 9.24364V13.2436C6 13.4426 6.07902 13.6333 6.21967 13.774C6.36032 13.9146 6.55109 13.9936 6.75 13.9936C6.94891 13.9936 7.13968 13.9146 7.28033 13.774C7.42098 13.6333 7.5 13.4426 7.5 13.2436V9.24364C7.5 9.04473 7.42098 8.85397 7.28033 8.71331C7.13968 8.57266 6.94891 8.49364 6.75 8.49364C6.55109 8.49364 6.36032 8.57266 6.21967 8.71331C6.07902 8.85397 6 9.04473 6 9.24364ZM14 9.24364V13.2436C14 13.4426 14.079 13.6333 14.2197 13.774C14.3603 13.9146 14.5511 13.9936 14.75 13.9936C14.9489 13.9936 15.1397 13.9146 15.2803 13.774C15.421 13.6333 15.5 13.4426 15.5 13.2436V9.24364C15.5 9.04473 15.421 8.85397 15.2803 8.71331C15.1397 8.57266 14.9489 8.49364 14.75 8.49364C14.5511 8.49364 14.3603 8.57266 14.2197 8.71331C14.079 8.85397 14 9.04473 14 9.24364Z" fill="black"/>
<path d="M20.75 4.99364H0.75C0.551088 4.99364 0.360322 5.07266 0.21967 5.21331C0.0790177 5.35396 0 5.54472 0 5.74364C0 5.94255 0.0790177 6.13331 0.21967 6.27397C0.360322 6.41462 0.551088 6.49364 0.75 6.49364H20.75C20.9489 6.49364 21.1397 6.41462 21.2803 6.27397C21.421 6.13331 21.5 5.94255 21.5 5.74364C21.5 5.54472 21.421 5.35396 21.2803 5.21331C21.1397 5.07266 20.9489 4.99364 20.75 4.99364Z" fill="black"/>
</svg>
