<svg width="26" height="25" viewBox="0 0 26 25" fill="none" xmlns="http://www.w3.org/2000/svg">
<g clip-path="url(#clip0_1_2)">
<path d="M25.856 10.141C21.673 19 20.312 19 19.5 19H11.5C8.698 19 6.551 17.352 6.03 14.8C6.014 14.722 4.43 6.947 4.025 4.775C3.826 3.71 3.32 3 1.5 3C0.671 3 0 2.329 0 1.5C0 0.671 0.671 0 1.5 0C4.52 0 6.464 1.5 6.974 4.224C7.375 6.373 8.954 14.122 8.97 14.201C9.289 15.767 10.692 16.001 11.5 16.001H19.105C19.922 15.123 21.784 11.74 23.143 8.86C23.497 8.111 24.392 7.792 25.14 8.144C25.89 8.497 26.21 9.391 25.856 10.141ZM10.5 20C9.119 20 8 21.119 8 22.5C8 23.881 9.119 25 10.5 25C11.881 25 13 23.881 13 22.5C13 21.119 11.881 20 10.5 20ZM19.5 20C18.119 20 17 21.119 17 22.5C17 23.881 18.119 25 19.5 25C20.881 25 22 23.881 22 22.5C22 21.119 20.881 20 19.5 20Z" fill="black"/>
</g>
<defs>
<clipPath id="clip0_1_2">
<rect width="26" height="25" fill="white"/>
</clipPath>
</defs>
</svg>
