<svg width="64" height="44" viewBox="0 0 64 44" fill="none" xmlns="http://www.w3.org/2000/svg">
<path d="M53.7223 0.37473C53.6345 0.286955 53.5303 0.217327 53.4156 0.169823C53.301 0.122319 53.1781 0.0978699 53.0539 0.0978699C52.9298 0.0978699 52.8069 0.122319 52.6922 0.169823C52.5775 0.217327 52.4733 0.286955 52.3856 0.37473L49.7713 2.98968L49.7698 2.99089L49.7686 2.99224L41.1408 11.6201C41.053 11.7078 40.9834 11.812 40.9359 11.9267C40.8884 12.0414 40.8639 12.1643 40.8639 12.2884C40.8639 12.4126 40.8884 12.5355 40.9359 12.6501C40.9834 12.7648 41.053 12.869 41.1408 12.9568L43.1256 14.9416C43.229 15.0449 43.3549 15.1229 43.4936 15.1693C43.6322 15.2158 43.7797 15.2294 43.9245 15.2092L45.102 15.0451L45.2547 15.1979L35.679 24.7738C35.448 25.0043 35.135 25.1337 34.8087 25.1337C34.4824 25.1337 34.1694 25.0043 33.9384 24.7738L32.5853 23.4205C32.1549 22.9901 31.571 22.7482 30.9623 22.7482C30.3536 22.7482 29.7697 22.9901 29.3393 23.4205L28.1533 24.6064L18.745 15.1981L18.93 15.013L20.2732 15.0931C20.4066 15.1014 20.5404 15.0812 20.6654 15.0336C20.7904 14.9861 20.9038 14.9124 20.998 14.8175L22.8591 12.9565C22.9469 12.8687 23.0165 12.7645 23.064 12.6499C23.1115 12.5352 23.136 12.4123 23.136 12.2882C23.136 12.164 23.1115 12.0411 23.064 11.9264C23.0165 11.8118 22.9469 11.7076 22.8591 11.6198L14.2313 2.99197L14.23 2.99062L14.2286 2.98941L11.6146 0.37473C11.4372 0.197658 11.1968 0.0982047 10.9462 0.0982047C10.6956 0.0982047 10.4552 0.197658 10.2779 0.37473L0.276861 10.3753C0.189086 10.4631 0.119458 10.5673 0.0719541 10.682C0.0244501 10.7966 0 10.9195 0 11.0437C0 11.1678 0.0244501 11.2907 0.0719541 11.4054C0.119458 11.5201 0.189086 11.6243 0.276861 11.712L11.5218 22.9571C11.6096 23.0449 11.7138 23.1145 11.8284 23.162C11.9431 23.2095 12.066 23.234 12.1902 23.234C12.3143 23.234 12.4372 23.2095 12.5519 23.162C12.6665 23.1145 12.7707 23.0449 12.8585 22.9571L14.8433 20.9723C14.9467 20.8689 15.0246 20.7429 15.0711 20.6043C15.1175 20.4657 15.1311 20.3182 15.1109 20.1734L14.9467 18.9959L15.0996 18.843L24.5089 28.2521L21.7309 31.03C21.3011 31.4608 21.0597 32.0445 21.0597 32.6531C21.0597 33.2616 21.3011 33.8453 21.7309 34.2762L29.8222 42.3675C30.0354 42.5807 30.2884 42.7498 30.5669 42.8651C30.8454 42.9805 31.1439 43.0399 31.4453 43.0399C31.7468 43.0399 32.0453 42.9805 32.3237 42.8651C32.6022 42.7498 32.8553 42.5807 33.0684 42.3675L40.6768 34.7591C41.1073 34.3287 41.3491 33.7449 41.3491 33.1361C41.3491 32.5274 41.1073 31.9436 40.6768 31.5131L39.3237 30.1598C39.0932 29.9288 38.9638 29.6158 38.9638 29.2896C38.9638 28.9633 39.0932 28.6503 39.3237 28.4194L48.8995 18.8434L49.0847 19.0287L49.0045 20.3717C48.9966 20.5051 49.017 20.6386 49.0644 20.7636C49.1118 20.8885 49.1852 21.0019 49.2797 21.0964L51.1414 22.958C51.2291 23.0458 51.3333 23.1154 51.448 23.1629C51.5627 23.2105 51.6856 23.2349 51.8097 23.2349C51.9338 23.2349 52.0568 23.2105 52.1714 23.1629C52.2861 23.1154 52.3903 23.0458 52.4781 22.958L63.7231 11.712C63.8109 11.6243 63.8805 11.5201 63.928 11.4054C63.9756 11.2907 64 11.1678 64 11.0437C64 10.9195 63.9756 10.7966 63.928 10.682C63.8805 10.5673 63.8109 10.4631 63.7231 10.3753L53.7223 0.37473ZM2.28192 11.0439L10.9462 2.37979L12.2251 3.65857L3.56097 12.3229L2.28192 11.0439ZM13.2781 17.9917C13.1748 18.0951 13.0968 18.221 13.0503 18.3597C13.0039 18.4983 12.9902 18.6458 13.0104 18.7906L13.1746 19.968L12.1903 20.9524L4.89754 13.6596L13.5617 4.99541L20.8544 12.2882L19.9617 13.1809L18.6185 13.1008C18.4851 13.0926 18.3515 13.1129 18.2265 13.1603C18.1015 13.2078 17.9881 13.2812 17.8937 13.3759L13.2781 17.9917ZM16.4376 17.5056L17.4087 16.5344L26.8168 25.9432L25.8456 26.9143L16.4376 17.5056ZM37.987 27.0816C37.4025 27.6673 37.0743 28.461 37.0743 29.2884C37.0743 30.1159 37.4025 30.9095 37.987 31.4953L39.34 32.8487C39.4159 32.9247 39.4585 33.0277 39.4585 33.135C39.4585 33.2424 39.4159 33.3454 39.34 33.4213L31.7317 41.0298C31.6558 41.1057 31.5527 41.1484 31.4453 41.1484C31.3379 41.1484 31.2349 41.1057 31.159 41.0298L23.0676 32.9385C23.0299 32.9009 23.0001 32.8562 22.9797 32.8071C22.9594 32.7579 22.9489 32.7053 22.9489 32.6521C22.9489 32.5989 22.9594 32.5462 22.9797 32.497C23.0001 32.4479 23.0299 32.4032 23.0676 32.3656L30.6768 24.7575C30.7528 24.6815 30.8558 24.6389 30.9632 24.6389C31.0706 24.6389 31.1736 24.6815 31.2496 24.7575L32.6027 26.1109C33.1886 26.6952 33.9822 27.0234 34.8096 27.0234C35.6371 27.0234 36.4307 26.6952 37.0166 26.1109L46.5925 16.5348L47.5637 17.506L37.987 27.0816ZM51.8097 20.9516L50.9168 20.0586L50.9969 18.7156C51.0049 18.5822 50.9845 18.4486 50.9371 18.3237C50.8897 18.1988 50.8163 18.0854 50.7219 17.9909L46.1062 13.3751C46.0028 13.2717 45.8768 13.1937 45.7382 13.1472C45.5996 13.1008 45.452 13.0872 45.3072 13.1075L44.1297 13.2716L43.1454 12.2873L50.4382 4.9946L59.1023 13.6588L51.8097 20.9516ZM60.439 12.322L51.7749 3.65776L53.0538 2.37898L61.7181 11.0431L60.439 12.322Z" fill="black"/>
<path d="M49.0711 15.027C49.6569 15.6115 50.4505 15.9397 51.2779 15.9397C52.1054 15.9397 52.899 15.6115 53.4848 15.027C53.9213 14.5905 54.2186 14.0344 54.339 13.429C54.4595 12.8235 54.3977 12.196 54.1615 11.6256C53.9252 11.0553 53.5252 10.5678 53.0119 10.2249C52.4986 9.88191 51.8952 9.69885 51.2779 9.69885C50.6606 9.69885 50.0571 9.88191 49.5438 10.2249C49.0306 10.5678 48.6305 11.0553 48.3943 11.6256C48.1581 12.196 48.0963 12.8235 48.2167 13.429C48.3372 14.0344 48.6344 14.5905 49.071 15.027H49.0711ZM50.4078 11.9498C50.5799 11.7777 50.7992 11.6605 51.0379 11.613C51.2767 11.5655 51.5241 11.5899 51.749 11.683C51.9739 11.7762 52.1661 11.9339 52.3013 12.1363C52.4366 12.3387 52.5087 12.5766 52.5087 12.8201C52.5087 13.0635 52.4366 13.3014 52.3013 13.5038C52.1661 13.7062 51.9739 13.8639 51.749 13.9571C51.5241 14.0502 51.2767 14.0746 51.0379 14.0271C50.7992 13.9796 50.5799 13.8624 50.4078 13.6903C50.293 13.5764 50.2018 13.4408 50.1396 13.2914C50.0774 13.1421 50.0453 12.9819 50.0453 12.8201C50.0453 12.6583 50.0773 12.4981 50.1394 12.3487C50.2016 12.1994 50.2927 12.0638 50.4075 11.9498H50.4078ZM28.9167 30.0256C28.4069 30.5354 28.0597 31.185 27.919 31.8921C27.7784 32.5993 27.8506 33.3323 28.1265 33.9984C28.4025 34.6645 28.8697 35.2339 29.4692 35.6345C30.0687 36.035 30.7735 36.2488 31.4946 36.2488C32.2156 36.2488 32.9204 36.035 33.5199 35.6345C34.1194 35.2339 34.5867 34.6645 34.8626 33.9984C35.1385 33.3323 35.2107 32.5993 35.0701 31.8921C34.9294 31.185 34.5823 30.5354 34.0724 30.0256C33.3882 29.3429 32.4611 28.9596 31.4946 28.9596C30.528 28.9596 29.6009 29.3429 28.9167 30.0256ZM32.7356 33.8445C32.4902 34.0897 32.1776 34.2566 31.8373 34.3242C31.497 34.3918 31.1443 34.357 30.8238 34.2241C30.5033 34.0913 30.2294 33.8664 30.0366 33.5779C29.8439 33.2895 29.7411 32.9503 29.7411 32.6034C29.7411 32.2564 29.8439 31.9173 30.0366 31.6288C30.2294 31.3403 30.5033 31.1154 30.8238 30.9826C31.1443 30.8498 31.497 30.8149 31.8373 30.8825C32.1776 30.9501 32.4902 31.117 32.7356 31.3623C33.0644 31.6916 33.249 32.138 33.249 32.6034C33.249 33.0688 33.0644 33.5151 32.7356 33.8445ZM14.9289 10.6129C14.4926 10.1772 13.9368 9.88055 13.3319 9.76055C12.727 9.64056 12.1001 9.70258 11.5304 9.93877C10.9608 10.175 10.4739 10.5747 10.1314 11.0876C9.78883 11.6004 9.60602 12.2032 9.60602 12.8199C9.60602 13.4366 9.78883 14.0395 10.1314 14.5523C10.4739 15.0651 10.9608 15.4649 11.5304 15.7011C12.1001 15.9373 12.727 15.9993 13.3319 15.8793C13.9368 15.7593 14.4926 15.4627 14.9289 15.0269C15.5132 14.441 15.8414 13.6474 15.8414 12.8199C15.8414 11.9925 15.5132 11.1988 14.9289 10.6129ZM13.5922 13.6902C13.4201 13.8621 13.2009 13.9792 12.9623 14.0266C12.7237 14.074 12.4764 14.0496 12.2517 13.9564C12.027 13.8633 11.8349 13.7056 11.6998 13.5033C11.5646 13.3011 11.4925 13.0633 11.4925 12.82C11.4925 12.5767 11.5646 12.3389 11.6998 12.1366C11.8349 11.9344 12.027 11.7767 12.2517 11.6835C12.4764 11.5904 12.7237 11.566 12.9623 11.6134C13.2009 11.6608 13.4201 11.7778 13.5922 11.9498C13.8226 12.1808 13.9521 12.4937 13.9521 12.8199C13.9522 13.1462 13.8228 13.4592 13.5925 13.6902H13.5922Z" fill="black"/>
</svg>
