<svg width="26" height="26" viewBox="0 0 26 26" fill="none" xmlns="http://www.w3.org/2000/svg">
<path d="M23.1111 26H2.88889C1.3 26 0 24.7 0 23.1111V2.88889C0 1.3 1.3 0 2.88889 0H23.1111C24.7 0 26 1.3 26 2.88889V23.1111C26 24.7 24.7 26 23.1111 26ZM2.88889 2.88889V23.1111H23.1111V2.88889H2.88889Z" fill="black"/>
<path d="M17.3333 18.7778C16.9 18.7778 16.6111 18.6333 16.3222 18.3444L7.65556 9.67778C7.07778 9.1 7.07778 8.23333 7.65556 7.65555C8.23334 7.07778 9.10001 7.07778 9.67778 7.65555L18.3445 16.3222C18.9222 16.9 18.9222 17.7667 18.3445 18.3444C18.0556 18.6333 17.7667 18.7778 17.3333 18.7778Z" fill="black"/>
<path d="M8.66667 18.7778C8.23334 18.7778 7.94445 18.6333 7.65556 18.3444C7.07778 17.7667 7.07778 16.9 7.65556 16.3222L16.3222 7.65555C16.9 7.07778 17.7667 7.07778 18.3445 7.65555C18.9222 8.23333 18.9222 9.1 18.3445 9.67778L9.67778 18.3444C9.3889 18.6333 9.10001 18.7778 8.66667 18.7778Z" fill="black"/>
</svg>
