<svg width="60" height="40" viewBox="0 0 60 40" fill="none" xmlns="http://www.w3.org/2000/svg">
<path d="M40 32H20C19.7348 32 19.4804 31.8946 19.2929 31.7071C19.1054 31.5196 19 31.2652 19 31C19 30.7348 19.1054 30.4804 19.2929 30.2929C19.4804 30.1054 19.7348 30 20 30H40C40.2652 30 40.5196 30.1054 40.7071 30.2929C40.8946 30.4804 41 30.7348 41 31C41 31.2652 40.8946 31.5196 40.7071 31.7071C40.5196 31.8946 40.2652 32 40 32ZM59 32H52C51.7348 32 51.4804 31.8946 51.2929 31.7071C51.1054 31.5196 51 31.2652 51 31C51 30.7348 51.1054 30.4804 51.2929 30.2929C51.4804 30.1054 51.7348 30 52 30H59C59.2652 30 59.5196 30.1054 59.7071 30.2929C59.8946 30.4804 60 30.7348 60 31C60 31.2652 59.8946 31.5196 59.7071 31.7071C59.5196 31.8946 59.2652 32 59 32ZM14 40C13.0111 40 12.0444 39.7068 11.2222 39.1574C10.3999 38.6079 9.75904 37.8271 9.3806 36.9134C9.00217 35.9998 8.90315 34.9945 9.09608 34.0245C9.289 33.0546 9.76521 32.1637 10.4645 31.4645C11.1637 30.7652 12.0546 30.289 13.0246 30.0961C13.9945 29.9031 14.9998 30.0022 15.9134 30.3806C16.8271 30.759 17.6079 31.3999 18.1574 32.2222C18.7068 33.0444 19 34.0111 19 35C18.9984 36.3256 18.4711 37.5964 17.5338 38.5338C16.5964 39.4711 15.3256 39.9984 14 40ZM14 32C13.4067 32 12.8266 32.176 12.3333 32.5056C11.8399 32.8352 11.4554 33.3038 11.2284 33.852C11.0013 34.4001 10.9419 35.0033 11.0576 35.5853C11.1734 36.1672 11.4591 36.7018 11.8787 37.1213C12.2982 37.5409 12.8328 37.8266 13.4147 37.9424C13.9967 38.0581 14.5999 37.9987 15.1481 37.7716C15.6962 37.5446 16.1648 37.1601 16.4944 36.6667C16.8241 36.1734 17 35.5933 17 35C17 34.2044 16.6839 33.4413 16.1213 32.8787C15.5587 32.3161 14.7957 32 14 32Z" fill="black"/>
<path d="M59 36H53C52.7348 36 52.4804 35.8947 52.2929 35.7071C52.1054 35.5196 52 35.2652 52 35C52 33.4087 51.3679 31.8826 50.2426 30.7574C49.1174 29.6322 47.5913 29 46 29C44.4087 29 42.8826 29.6322 41.7574 30.7574C40.6321 31.8826 40 33.4087 40 35C40 35.2652 39.8946 35.5196 39.7071 35.7071C39.5196 35.8947 39.2652 36 39 36H21C20.7348 36 20.4804 35.8947 20.2929 35.7071C20.1054 35.5196 20 35.2652 20 35C20 33.4087 19.3679 31.8826 18.2426 30.7574C17.1174 29.6322 15.5913 29 14 29C12.4087 29 10.8826 29.6322 9.75736 30.7574C8.63214 31.8826 8 33.4087 8 35C8 35.2652 7.89465 35.5196 7.70711 35.7071C7.51957 35.8947 7.26522 36 7 36C6.73479 36 6.48043 35.8947 6.2929 35.7071C6.10536 35.5196 6 35.2652 6 35C5.99849 32.964 6.77334 31.004 8.16668 29.5194C9.56002 28.0347 11.467 27.1373 13.499 27.0098C15.5311 26.8823 17.5353 27.5344 19.1033 28.8332C20.6712 30.132 21.685 31.9798 21.938 34H38.062C38.3043 32.0656 39.2446 30.2861 40.7063 28.9961C42.168 27.706 44.0504 26.9941 46 26.9941C47.9496 26.9941 49.8321 27.706 51.2938 28.9961C52.7554 30.2861 53.6958 32.0656 53.938 34H58V24.618L52.553 21.9C52.3335 21.7904 52.1619 21.6039 52.071 21.376L46.571 7.63402C46.4985 7.44752 46.3715 7.28723 46.2064 7.17412C46.0414 7.061 45.8461 7.00032 45.646 7.00001H35V25C35 25.2652 34.8946 25.5196 34.7071 25.7071C34.5196 25.8947 34.2652 26 34 26H7C6.73479 26 6.48043 25.8947 6.2929 25.7071C6.10536 25.5196 6 25.2652 6 25C6 24.7348 6.10536 24.4804 6.2929 24.2929C6.48043 24.1054 6.73479 24 7 24H33V6.00001C33 5.7348 33.1054 5.48044 33.2929 5.29291C33.4804 5.10537 33.7348 5.00001 34 5.00001H45.646C46.2461 4.99814 46.8328 5.17707 47.3298 5.51347C47.8267 5.84988 48.2108 6.32817 48.432 6.88601L53.787 20.275L59.447 23.105C59.6132 23.1881 59.753 23.3158 59.8507 23.4739C59.9484 23.632 60.0001 23.8142 60 24V35C60 35.2652 59.8946 35.5196 59.7071 35.7071C59.5196 35.8947 59.2652 36 59 36Z" fill="black"/>
<path d="M46 40C45.0111 40 44.0444 39.7068 43.2221 39.1573C42.3999 38.6079 41.759 37.827 41.3806 36.9134C41.0022 35.9998 40.9031 34.9945 41.0961 34.0245C41.289 33.0546 41.7652 32.1637 42.4645 31.4645C43.1637 30.7652 44.0546 30.289 45.0245 30.0961C45.9945 29.9031 46.9998 30.0022 47.9134 30.3806C48.827 30.759 49.6079 31.3999 50.1573 32.2221C50.7068 33.0444 51 34.0111 51 35C50.9984 36.3256 50.4711 37.5964 49.5338 38.5338C48.5964 39.4711 47.3256 39.9984 46 40ZM46 32C45.4067 32 44.8266 32.1759 44.3333 32.5056C43.8399 32.8352 43.4554 33.3038 43.2284 33.852C43.0013 34.4001 42.9419 35.0033 43.0576 35.5853C43.1734 36.1672 43.4591 36.7018 43.8787 37.1213C44.2982 37.5409 44.8328 37.8266 45.4147 37.9424C45.9967 38.0581 46.5999 37.9987 47.148 37.7716C47.6962 37.5446 48.1648 37.1601 48.4944 36.6667C48.8241 36.1734 49 35.5933 49 35C49 34.2044 48.6839 33.4413 48.1213 32.8787C47.5587 32.3161 46.7956 32 46 32ZM48 22H38C37.7348 22 37.4804 21.8946 37.2929 21.7071C37.1054 21.5196 37 21.2652 37 21V10C37 9.73478 37.1054 9.48043 37.2929 9.29289C37.4804 9.10536 37.7348 9 38 9H44C44.2053 8.99994 44.4056 9.06305 44.5738 9.18077C44.7419 9.29849 44.8698 9.4651 44.94 9.658L48.94 20.658C48.995 20.8091 49.0127 20.9712 48.9917 21.1306C48.9707 21.29 48.9116 21.442 48.8194 21.5737C48.7271 21.7054 48.6045 21.8129 48.4618 21.8871C48.3192 21.9613 48.1608 22 48 22ZM39 20H46.572L43.3 11H39V20ZM34 7C33.7348 7 33.4804 6.89464 33.2929 6.70711C33.1054 6.51957 33 6.26522 33 6V2H11C10.7348 2 10.4804 1.89464 10.2929 1.70711C10.1054 1.51957 10 1.26522 10 1C10 0.734784 10.1054 0.48043 10.2929 0.292893C10.4804 0.105357 10.7348 0 11 0H34C34.2652 0 34.5196 0.105357 34.7071 0.292893C34.8946 0.48043 35 0.734784 35 1V6C35 6.26522 34.8946 6.51957 34.7071 6.70711C34.5196 6.89464 34.2652 7 34 7ZM7 2H4C3.73478 2 3.48043 1.89464 3.29289 1.70711C3.10536 1.51957 3 1.26522 3 1C3 0.734784 3.10536 0.48043 3.29289 0.292893C3.48043 0.105357 3.73478 0 4 0H7C7.26522 0 7.51957 0.105357 7.70711 0.292893C7.89464 0.48043 8 0.734784 8 1C8 1.26522 7.89464 1.51957 7.70711 1.70711C7.51957 1.89464 7.26522 2 7 2ZM16 9H2C1.73478 9 1.48043 8.89464 1.29289 8.70711C1.10536 8.51957 1 8.26522 1 8C1 7.73478 1.10536 7.48043 1.29289 7.29289C1.48043 7.10536 1.73478 7 2 7H16C16.2652 7 16.5196 7.10536 16.7071 7.29289C16.8946 7.48043 17 7.73478 17 8C17 8.26522 16.8946 8.51957 16.7071 8.70711C16.5196 8.89464 16.2652 9 16 9ZM9.875 18H1C0.734784 18 0.48043 17.8946 0.292893 17.7071C0.105357 17.5196 0 17.2652 0 17C0 16.7348 0.105357 16.4804 0.292893 16.2929C0.48043 16.1054 0.734784 16 1 16H9.875C10.1402 16 10.3946 16.1054 10.5821 16.2929C10.7696 16.4804 10.875 16.7348 10.875 17C10.875 17.2652 10.7696 17.5196 10.5821 17.7071C10.3946 17.8946 10.1402 18 9.875 18ZM3 26H1C0.734784 26 0.48043 25.8946 0.292893 25.7071C0.105357 25.5196 0 25.2652 0 25C0 24.7348 0.105357 24.4804 0.292893 24.2929C0.48043 24.1054 0.734784 24 1 24H3C3.26522 24 3.51957 24.1054 3.70711 24.2929C3.89464 24.4804 4 24.7348 4 25C4 25.2652 3.89464 25.5196 3.70711 25.7071C3.51957 25.8946 3.26522 26 3 26Z" fill="black"/>
</svg>
