<svg width="429" height="85" viewBox="0 0 429 85" fill="none" xmlns="http://www.w3.org/2000/svg">
<g clip-path="url(#clip0_13_52)">
<path d="M27.1951 71.2649H12.457V60.467H20.8795C22.8177 60.467 24.3888 58.8959 24.3888 56.9586C24.3888 55.0213 22.8177 53.4503 20.8795 53.4503H12.457V42.6514H28.5983C30.5374 42.6514 32.1075 41.0804 32.1075 39.1421C32.1075 37.2039 30.5374 35.6329 28.5983 35.6329H12.457V24.8349H37.7228C39.6601 24.8349 41.2312 23.2639 41.2312 21.3257C41.2312 19.3875 39.6601 17.8165 37.7228 17.8165H12.457V7.01849H52.4583C54.3956 7.01849 55.9666 5.44746 55.9666 3.50925C55.9666 1.57104 54.3956 0 52.4583 0H8.94773H3.50925C1.57104 0 0 1.57104 0 3.50925C0 5.44746 1.57104 7.01849 3.50925 7.01849H5.43938V18.1486C4.23731 18.7052 3.39972 19.9136 3.39972 21.3257C3.39972 22.7378 4.23731 23.9453 5.43938 24.5028V35.9651C4.23731 36.5217 3.39972 37.73 3.39972 39.1421C3.39972 40.5534 4.23731 41.7626 5.43938 42.3192V53.7815C4.23731 54.3372 3.39972 55.5474 3.39972 56.9586C3.39972 58.3698 4.23731 59.5791 5.43938 60.1357V71.2649H3.50925C1.57104 71.2649 0 72.8359 0 74.7733C0 76.7106 1.57104 78.2825 3.50925 78.2825H8.94773H27.1951C29.1333 78.2825 30.7043 76.7106 30.7043 74.7733C30.7043 72.8359 29.1333 71.2649 27.1951 71.2649Z" fill="#F8B500"/>
<path d="M65.3955 40.5453L64.3003 39.0676C59.9849 33.2081 57.5053 27.0856 56.7144 20.3526C56.4666 18.2285 54.7098 16.6871 52.5373 16.6871C52.4798 16.6871 52.4197 16.6871 52.3757 16.6871C50.2103 16.6871 48.4544 18.224 48.1985 20.3508C47.4085 27.0865 44.9254 33.2099 40.61 39.0676L39.5174 40.5417C33.9775 48.001 27.6978 56.455 30.4826 67.4047C32.8535 76.7187 42.471 84.0145 52.3766 84.0145C52.4223 84.0145 52.4852 84.0154 52.5364 84.0145C62.4429 84.0145 72.0594 76.7187 74.4303 67.4038C77.2142 56.4577 70.9355 48.0046 65.3955 40.5453ZM67.6273 65.6738C66.0464 71.8924 59.3232 76.9548 52.6163 76.9961C52.5031 76.9898 52.4107 76.9898 52.2958 76.9961C45.5897 76.9557 38.8657 71.8915 37.2829 65.6738C35.3214 57.9596 40.0955 51.5318 45.1516 44.7261L46.2585 43.2304C48.9014 39.6431 50.9599 35.9588 52.4556 32.1237C53.9512 35.9606 56.007 39.6422 58.649 43.2286L59.7604 44.7297C64.8165 51.5354 69.5915 57.9614 67.6273 65.6738Z" fill="#F8B500"/>
<path d="M52.9708 66.0051C52.8425 65.9979 52.7222 65.997 52.592 65.997C50.389 65.9566 48.0324 64.1908 47.5207 62.1816C47.0413 60.3027 45.1336 59.1715 43.252 59.6482C41.3748 60.1267 40.241 62.0389 40.7204 63.916C42.0436 69.105 47.1796 73.0164 52.6692 73.0164C52.6943 73.0164 52.7204 73.0173 52.7446 73.0164C54.6819 73.0164 56.253 71.4454 56.253 69.508C56.253 67.6461 54.8031 66.1236 52.9708 66.0051Z" fill="#F8B500"/>
<path d="M112.672 64.3614C120.42 64.3614 126.839 58.2191 126.839 50.3055C126.839 42.2257 120.42 36.1937 112.672 36.1937C104.924 36.1937 98.5048 42.226 98.5048 50.3055C98.5048 58.2191 104.924 64.3614 112.672 64.3614ZM112.672 58.7172C107.913 58.7172 104.371 54.788 104.371 50.3609C104.371 45.7675 107.912 41.8383 112.672 41.8383C117.432 41.8383 120.973 45.7675 120.973 50.3609C120.973 54.788 117.432 58.7172 112.672 58.7172ZM136.247 26.3992C134.421 26.3992 132.927 24.9604 132.927 23.079C132.927 21.2527 134.421 19.7587 136.247 19.7587C138.073 19.7587 139.567 21.2529 139.567 23.079C139.567 24.9605 138.073 26.3992 136.247 26.3992ZM138.405 36.5805H134.144C133.591 36.5805 133.259 36.9684 133.259 37.466V61.7606C133.259 63.0334 134.033 63.9737 135.361 63.9737H138.461C138.959 63.9737 139.291 63.6422 139.291 63.0334V37.4661C139.291 36.9685 138.903 36.5805 138.405 36.5805ZM152.739 19.7025H148.477C147.925 19.7025 147.592 20.0899 147.592 20.588V61.7609C147.592 63.0338 148.367 63.974 149.751 63.974H152.739C153.293 63.974 153.625 63.6425 153.625 63.0338V20.5874C153.625 20.0894 153.237 19.7025 152.739 19.7025ZM207.915 62.8124C208.081 63.4212 207.86 63.9751 207.362 63.9751H203.765C202.382 63.9751 201.607 63.0349 201.607 61.7621V47.3182C201.607 43.7211 199.061 41.618 195.409 41.618C192.254 41.618 189.598 43.4443 187.329 45.7131C187.384 46.0451 187.384 46.3772 187.384 46.7651V58.9949C187.439 60.5444 187.55 61.7066 187.716 62.8134C187.827 63.4222 187.661 63.975 187.162 63.975H183.565C182.126 63.975 181.407 63.0348 181.407 61.7619V47.3181C181.407 43.7209 178.861 41.6179 175.208 41.6179C172.054 41.6179 169.398 43.3888 167.184 45.6578V63.0902C167.184 63.5877 166.797 63.9751 166.299 63.9751H161.982C161.484 63.9751 161.152 63.5877 161.152 63.0902V37.467C161.152 36.9694 161.484 36.5815 161.982 36.5815H164.971C166.299 36.5815 167.129 37.965 167.184 38.9611V39.5145C169.343 37.8538 172.22 36.2494 175.983 36.2494C179.802 36.2494 183.621 37.8538 185.724 40.9528C187.937 38.9052 191.368 36.2488 196.238 36.2488C201.938 36.2488 207.638 39.8459 207.638 46.764V58.9938C207.638 60.5434 207.804 61.7056 207.915 62.8124ZM237.631 62.7565C236.912 57.3332 236.858 52.2978 237.079 46.9855C237.356 40.4552 233.759 36.2495 227.007 36.2495C222.58 36.2495 217.987 37.5777 215.275 39.0719C214.777 39.3486 214.445 39.8461 214.666 40.3441L216.05 43.5539C216.271 44.1073 216.658 44.2733 217.378 43.9413C220.919 42.3364 223.797 41.5616 226.62 41.5616C229.608 41.5616 231.379 42.7238 231.268 45.8781C221.03 47.6484 213.227 49.4746 213.227 56.6689C213.227 61.4837 216.714 64.2502 222.358 64.2502C227.063 64.2502 229.497 62.8119 231.822 61.041C232.098 62.7012 232.596 63.974 233.703 63.974H237.023C237.521 63.974 237.687 63.3653 237.631 62.7565ZM223.41 59.492C221.141 59.492 219.37 58.7173 219.37 56.6143C219.37 53.2385 225.567 52.1316 231.158 50.9696C231.102 52.7958 231.102 55.2309 231.158 56.8357C229.331 58.2192 226.232 59.492 223.41 59.492ZM263.365 37.9646C263.974 38.3519 264.14 38.6834 263.752 39.2922L261.483 42.6125C261.206 42.9998 260.819 43.1105 260.321 42.9998C259.159 42.4464 258.163 41.9484 256.337 41.9484C254.511 41.9484 251.633 42.7232 250.083 46.1542V63.0889C250.083 63.5865 249.751 63.9738 249.253 63.9738H244.881C244.383 63.9738 244.051 63.5865 244.051 63.0889V37.4657C244.051 36.9682 244.438 36.5803 244.881 36.5803H247.925C249.253 36.5803 250.083 37.9638 250.083 38.9599V39.3478C252.02 37.5769 254.344 36.3594 257.388 36.3594C260.21 36.3594 262.313 37.2451 263.365 37.9646ZM294.411 62.1484C295.13 62.9231 294.798 63.9204 293.746 63.9204H289.263C288.765 63.9204 288.489 63.8097 288.157 63.4223L274.986 50.2512V63.0902C274.986 63.5878 274.598 63.9751 274.1 63.9751H269.894C269.341 63.9751 268.954 63.5878 268.954 63.0902V24.4053C268.954 22.5237 268.677 21.6936 268.511 20.8637C268.401 20.2544 268.567 19.701 269.12 19.701H272.883C274.156 19.701 274.986 20.5311 274.986 21.6932V48.7547L286.11 37.0226C286.442 36.6905 286.774 36.5798 287.161 36.5798H291.588C292.474 36.5798 292.972 37.6866 292.308 38.4061L281.405 49.5296L294.411 62.1484ZM321.639 52.5184C323.631 52.5184 325.014 51.5223 325.014 49.1981C325.014 42.3914 319.756 36.1929 311.677 36.1929C303.985 36.1929 297.952 42.2804 297.952 50.2495C297.952 58.5501 304.261 64.2503 312.009 64.2503C316.934 64.2503 320.808 62.258 323.188 59.0483C323.52 58.6056 323.41 58.2735 323.078 57.8308L322.027 56.4473C321.584 55.8944 321.141 55.9492 320.587 56.2813C318.817 57.7201 315.884 58.9382 312.674 58.9382C308.136 58.9382 304.926 56.1711 304.318 52.5187L321.639 52.5184ZM304.317 47.8144C304.538 45.158 307.029 41.7269 311.567 41.7269C316.16 41.7269 318.539 45.2134 318.705 47.8144H304.317ZM347.095 62.2037C347.261 62.6464 346.93 62.922 346.542 63.1987C345.601 63.8075 343.554 64.2502 341.506 64.2502C335.585 64.2502 333.426 61.2065 333.426 54.0677V42.3907H330.161C329.663 42.3907 329.276 42.0586 329.276 41.5052V40.5644C329.276 40.1217 329.386 39.7902 329.719 39.4576C332.928 36.8566 335.474 34.1456 337.688 28.5554C337.854 28.1681 338.02 27.9467 338.296 27.9467H338.905C339.348 27.9467 339.514 28.168 339.514 28.6661V36.5797H345.325C345.823 36.5797 346.266 36.9677 346.266 37.5211V41.5055C346.266 42.0036 345.823 42.391 345.325 42.391H340.51C340.067 42.391 339.68 42.3356 339.459 42.2249V53.5144C339.459 56.7241 339.846 58.5505 342.558 58.5505C343.72 58.5505 344.495 58.3844 345.159 58.2184C345.823 58.0524 346.265 58.3291 346.376 58.9384L347.095 62.2037ZM370.504 19.7025C380.134 19.7025 385.668 27.8375 385.668 34.5339C385.668 41.6176 380.134 49.476 370.505 49.476H359.492V63.0343C359.492 63.6431 359.16 63.9746 358.606 63.9746H354.124C353.57 63.9746 353.238 63.6431 353.238 63.0343V20.588C353.238 20.09 353.57 19.7026 354.124 19.7026L370.504 19.7025ZM370.007 43.4431C376.095 43.4431 379.471 38.9604 379.471 34.5333C379.471 30.1613 376.095 25.7341 370.007 25.7341H359.493V43.4431H370.007ZM406.365 19.7025C421.086 19.7025 429 31.1033 429 41.6176C429 53.1839 421.031 63.9753 406.421 63.9753H391.589C391.035 63.9753 390.648 63.588 390.648 63.0345V20.5882C390.648 20.0902 390.98 19.7028 391.534 19.7028L406.365 19.7025ZM406.532 57.9431C416.77 57.9431 422.637 49.9188 422.581 41.5624C422.581 33.3719 416.936 25.7348 406.532 25.7348H396.847L396.903 57.9431H406.532Z" fill="#111111"/>
</g>
<defs>
<clipPath id="clip0_13_52">
<rect width="429" height="84.0149" fill="white"/>
</clipPath>
</defs>
</svg>
