<svg width="1707" height="1707" viewBox="0 0 1707 1707" fill="none" xmlns="http://www.w3.org/2000/svg">
<path d="M279 0H1427C1581 0 1707 126 1707 279V1427C1707 1581 1581 1707 1427 1707H279C126 1707 0 1581 0 1427V279C0 126 126 0 279 0ZM1320 578H1484C1531 578 1569 616 1569 663V1044C1569 1090 1531 1129 1484 1129H1320C1273 1129 1235 1090 1235 1044V663C1235 616 1273 578 1320 578ZM1484 658H1320C1317 658 1315 660 1315 663V1044C1315 1046 1317 1049 1320 1049H1484C1487 1049 1489 1046 1489 1044V663C1489 660 1487 658 1484 658ZM1119 752C1119 774 1137 792 1159 792C1182 792 1199 774 1199 752C1199 656 1122 578 1026 578C931 578 853 656 853 752V955C853 1050 931 1129 1026 1129C1122 1129 1199 1050 1199 955V839C1199 817 1182 799 1159 799H1006C984 799 966 817 966 839C966 861 984 879 1006 879H1119V955C1119 1007 1078 1049 1026 1049C975 1049 933 1007 933 955V752C933 700 975 658 1026 658C1078 658 1119 700 1119 752ZM569 578H733C780 578 818 616 818 663V1044C818 1090 780 1129 733 1129H569C522 1129 484 1090 484 1044V663C484 616 522 578 569 578ZM733 658H569C566 658 564 660 564 663V1044C564 1046 566 1049 569 1049H733C736 1049 738 1046 738 1044V663C738 660 736 658 733 658ZM409 1129C431 1129 449 1111 449 1089C449 1066 431 1049 409 1049H218V618C218 596 200 578 178 578C156 578 138 596 138 618V1089C138 1111 156 1129 178 1129H409ZM1427 80H279C170 80 80 170 80 279V1427C80 1537 170 1627 279 1627H1427C1537 1627 1627 1537 1627 1427V279C1627 170 1537 80 1427 80Z" fill="black"/>
<path d="M1427 80H279C170 80 80 170 80 279V1427C80 1537 170 1627 279 1627H1427C1537 1627 1627 1537 1627 1427V279C1627 170 1537 80 1427 80ZM1320 578H1484C1531 578 1569 616 1569 663V1044C1569 1090 1531 1129 1484 1129H1320C1273 1129 1235 1090 1235 1044V663C1235 616 1273 578 1320 578ZM853 752C853 656 931 578 1026 578C1122 578 1199 656 1199 752C1199 774 1182 792 1159 792C1137 792 1119 774 1119 752C1119 700 1078 658 1026 658C975 658 933 700 933 752V955C933 1007 975 1049 1026 1049C1078 1049 1119 1007 1119 955V879H1006C984 879 966 861 966 839C966 817 984 799 1006 799H1159C1182 799 1199 817 1199 839V955C1199 1050 1122 1129 1026 1129C931 1129 853 1050 853 955V752ZM569 578H733C780 578 818 616 818 663V1044C818 1090 780 1129 733 1129H569C522 1129 484 1090 484 1044V663C484 616 522 578 569 578ZM409 1049C431 1049 449 1066 449 1089C449 1111 431 1129 409 1129H178C156 1129 138 1111 138 1089V618C138 596 156 578 178 578C200 578 218 596 218 618V1049H409Z" fill="#F3F3F3"/>
<path d="M733 658H569C566 658 564 660 564 663V1044C564 1046 566 1049 569 1049H733C736 1049 738 1046 738 1044V663C738 660 736 658 733 658ZM1315 663V1044C1315 1046 1317 1049 1320 1049H1484C1487 1049 1489 1046 1489 1044V663C1489 660 1487 658 1484 658H1320C1317 658 1315 660 1315 663Z" fill="#F3F3F3"/>
</svg>
