<svg width="31" height="32" viewBox="0 0 31 32" fill="none" xmlns="http://www.w3.org/2000/svg">
<path d="M30.3817 3.98513L24.3458 0.484606C23.8003 0.168766 23.1815 0.00166533 22.5512 1.23834e-05C21.9208 -0.00164057 21.3011 0.162212 20.754 0.475187L11.3108 5.88099C10.7617 6.19655 10.3053 6.65108 9.98753 7.1989C9.66976 7.74673 9.50178 8.36855 9.50048 9.00187V11.511H5.77207C5.05156 11.5088 4.34715 11.724 3.7508 12.1283C3.15446 12.5327 2.69392 13.1075 2.42932 13.7776L0.0821196 19.6759C-0.0347531 19.9813 -0.0266 20.3205 0.104814 20.62C0.236227 20.9194 0.480322 21.1551 0.784236 21.2759C1.08815 21.3967 1.42742 21.3929 1.72857 21.2654C2.02971 21.1378 2.2685 20.8968 2.39321 20.5945L4.74067 14.6957C4.82192 14.4887 4.96393 14.3111 5.14802 14.1863C5.33211 14.0616 5.54967 13.9954 5.77207 13.9966H8.40655V14.6507H6.47824C6.35683 14.6508 6.2404 14.6991 6.15455 14.7849C6.0687 14.8708 6.02044 14.9872 6.02037 15.1086V17.3962C5.76146 17.5835 5.5506 17.8296 5.40508 18.1141C5.25955 18.3987 5.18349 18.7137 5.18311 19.0333V27.4058C5.18415 28.3596 5.56351 29.2741 6.23797 29.9486C6.91242 30.623 7.82688 31.0024 8.7807 31.0034H14.2752C15.229 31.0024 16.1435 30.623 16.8179 29.9486C17.4924 29.2741 17.8717 28.3596 17.8728 27.4058V19.0333C17.8725 18.7138 17.7966 18.399 17.6513 18.1146C17.5061 17.8301 17.2956 17.584 17.0371 17.3964V15.1086C17.037 14.9872 16.9888 14.8708 16.9029 14.7849C16.8171 14.6991 16.7006 14.6508 16.5792 14.6507H14.6509V11.9689C14.6508 11.8475 14.6026 11.7311 14.5167 11.6452C14.4309 11.5594 14.3145 11.5111 14.193 11.511H13.5573V8.90768C13.5576 8.72355 13.6035 8.54238 13.6909 8.38031C13.7783 8.21824 13.9044 8.08032 14.058 7.97884L22.012 2.71773C22.1854 2.60492 22.3866 2.5421 22.5933 2.53619C22.8001 2.53029 23.0046 2.58151 23.1841 2.68424L29.1339 6.13792C29.4192 6.30329 29.7585 6.34854 30.0772 6.26372C30.3959 6.17891 30.6678 5.97098 30.8331 5.68567C30.9985 5.40037 31.0437 5.06106 30.9589 4.74239C30.8741 4.42372 30.6662 4.1518 30.3809 3.98643L30.3817 3.98513ZM5.77207 13.0809C5.36577 13.0787 4.96833 13.1995 4.63206 13.4276C4.29579 13.6556 4.03647 13.9802 3.88824 14.3585L1.54209 20.2564C1.50843 20.3351 1.44538 20.3974 1.36638 20.4302C1.28739 20.463 1.19871 20.4636 1.11926 20.4319C1.03982 20.4003 0.975898 20.3388 0.941145 20.2606C0.906392 20.1825 0.903557 20.0938 0.933244 20.0136L3.28018 14.1165C3.47742 13.6169 3.82074 13.1884 4.26529 12.8869C4.70984 12.5855 5.23496 12.4251 5.77207 12.4268H8.40655V13.0809H5.77207ZM16.9583 27.4058C16.9576 28.1169 16.6748 28.7986 16.172 29.3013C15.6692 29.8041 14.9875 30.0869 14.2765 30.0877H8.78201C8.07097 30.0869 7.38928 29.8041 6.8865 29.3013C6.38372 28.7986 6.10093 28.1169 6.10017 27.4058V19.0333C6.10051 18.7384 6.21778 18.4558 6.42624 18.2473C6.6347 18.0389 6.91734 17.9216 7.21215 17.9213H15.8464C16.1412 17.9216 16.4238 18.0389 16.6323 18.2473C16.8407 18.4558 16.958 18.7384 16.9583 19.0333V27.4058ZM16.1227 17.0267C16.0312 17.0133 15.9388 17.0062 15.8464 17.0055H7.21215C7.11986 17.0063 7.02772 17.0133 6.93638 17.0265V15.5665H16.1227V17.0267ZM13.7365 14.6507H9.3223V12.4268H13.7362L13.7365 14.6507ZM29.592 5.34305L23.6441 1.89172C23.318 1.7015 22.9451 1.60646 22.5676 1.61737C22.1902 1.62828 21.8234 1.74472 21.5088 1.95347L13.5507 7.21589C13.2715 7.40106 13.0425 7.65246 12.8841 7.94765C12.7257 8.24285 12.6428 8.57266 12.6428 8.90768V11.511H10.4162V9.00187C10.4173 8.52974 10.5427 8.06622 10.7796 7.65788C11.0166 7.24954 11.3569 6.91077 11.7663 6.6756L21.2093 1.26954C21.617 1.03635 22.0789 0.914283 22.5486 0.915523C23.0184 0.916762 23.4796 1.04127 23.8861 1.2766L29.9235 4.77817C29.9725 4.80679 30.0131 4.8478 30.0413 4.89707C30.0694 4.94635 30.0841 5.00216 30.0839 5.05891C30.084 5.11657 30.0689 5.17324 30.0401 5.2232C30.0113 5.27317 29.9699 5.31465 29.9199 5.34347C29.87 5.37229 29.8133 5.38743 29.7557 5.38735C29.698 5.38728 29.6414 5.372 29.5915 5.34305H29.592Z" fill="black"/>
<path d="M15.8464 20.4623C15.725 20.4624 15.6085 20.5107 15.5227 20.5965C15.4368 20.6824 15.3886 20.7988 15.3885 20.9202V22.8271C15.3885 22.9485 15.4367 23.065 15.5226 23.1508C15.6085 23.2367 15.7249 23.2849 15.8464 23.2849C15.9678 23.2849 16.0843 23.2367 16.1701 23.1508C16.256 23.065 16.3042 22.9485 16.3042 22.8271V20.9202C16.3042 20.7988 16.256 20.6823 16.1701 20.5965C16.0843 20.5106 15.9678 20.4623 15.8464 20.4623ZM11.2012 21.4927C11.0272 21.6717 9.50048 23.2795 9.50048 24.6298C9.50048 25.1676 9.71412 25.6833 10.0944 26.0636C10.4747 26.4439 10.9904 26.6575 11.5282 26.6575C12.066 26.6575 12.5818 26.4439 12.962 26.0636C13.3423 25.6833 13.5559 25.1676 13.5559 24.6298C13.5559 23.2795 12.0303 21.6717 11.8553 21.4927C11.7675 21.408 11.6502 21.3606 11.5282 21.3606C11.4062 21.3606 11.289 21.408 11.2012 21.4927ZM11.5293 25.7418C11.2344 25.7414 10.9518 25.6242 10.7434 25.4157C10.5349 25.2072 10.4176 24.9246 10.4173 24.6298C10.4173 23.9757 11.0591 23.062 11.5287 22.5C11.9916 23.0573 12.6412 23.9814 12.6412 24.6298C12.6405 24.9244 12.5231 25.2067 12.3147 25.4149C12.1063 25.623 11.8238 25.7401 11.5293 25.7405V25.7418Z" fill="black"/>
</svg>
