<svg width="24" height="24" viewBox="0 0 24 24" fill="none" xmlns="http://www.w3.org/2000/svg">
<path d="M23.9187 14.3806L23.1534 11.8308C22.9061 11.0059 22.1613 10.4516 21.2996 10.4516H16.8844L17.7019 8.81574L20.2816 7.71058L19.9765 6.9991L17.1368 8.21652L16.152 10.1853L13.1613 7.19458L12.5923 7.76361L7.71523 2.6431C6.11574 0.963097 3.86787 0 1.54839 0V0.774194C3.65691 0.774194 5.70039 1.65019 7.15471 3.1769L12.0445 8.31135L11.4813 8.87458L13.1613 10.9746V13.0846C12.0646 13.795 11.3698 14.9535 11.2529 16.2581H10.4516V17.0323H11.2258V24H19.7419V17.0323H20.5161V16.2581H19.7148C19.5979 14.9535 18.9031 13.795 17.8065 13.0846V12.7742H19.0997L21.019 17.2521C21.1385 17.5317 21.3375 17.77 21.5913 17.9373C21.8451 18.1047 22.1425 18.1938 22.4466 18.1935C23.3032 18.1935 24 17.4968 24 16.6401V14.9369C24 14.7485 23.9726 14.5612 23.9187 14.3806ZM17.0323 11.2258V12.7742H13.9355V11.2258H17.0323ZM12.5187 8.93187L13.1613 8.28929L15.3236 10.4516H13.7346L12.5187 8.93187ZM18.941 16.2581H17.8065V17.0323H18.9677V23.2258H12V17.0323H17.0323V16.2581H12.0267C12.1541 15.1003 12.8408 14.0892 13.896 13.5484H17.0717C18.127 14.0892 18.8141 15.1003 18.941 16.2581ZM23.2258 16.6401C23.2258 17.0698 22.8763 17.4194 22.4466 17.4194C22.294 17.4194 22.1449 17.3746 22.0175 17.2907C21.8901 17.2068 21.7902 17.0873 21.7301 16.9471L19.6099 12H17.8065V11.2258H21.2996C21.8164 11.2258 22.2635 11.5583 22.4117 12.0534L23.177 14.6032C23.2095 14.7115 23.2259 14.8239 23.2258 14.9369V16.6401Z" fill="black"/>
<path d="M12.7742 17.8065H13.5484V18.5807H12.7742V17.8065ZM14.3226 17.8065H15.0968V18.5807H14.3226V17.8065ZM15.871 17.8065H16.6452V18.5807H15.871V17.8065ZM17.4194 17.8065H18.1935V18.5807H17.4194V17.8065ZM3.87097 5.41936V5.28658C3.87097 4.76942 3.66968 4.28323 3.30426 3.91781L1.93548 2.54942L0.56671 3.91781C0.20129 4.28323 0 4.76942 0 5.28658V5.41936C0 6.48658 0.868258 7.35484 1.93548 7.35484C3.00271 7.35484 3.87097 6.48658 3.87097 5.41936ZM3.09677 5.41936C3.09677 6.05962 2.57574 6.58065 1.93548 6.58065C1.29523 6.58065 0.774194 6.05962 0.774194 5.41936V5.28658C0.774194 4.97613 0.894968 4.68426 1.11406 4.46517L1.93548 3.64413L2.7569 4.46517C2.976 4.68465 3.09677 4.97613 3.09677 5.28658V5.41936ZM4.25806 8.74297L2.88929 10.1114C2.52387 10.4768 2.32258 10.963 2.32258 11.4801V11.6129C2.32258 12.6801 3.19084 13.5484 4.25806 13.5484C5.32529 13.5484 6.19355 12.6801 6.19355 11.6129V11.4801C6.19355 10.963 5.99226 10.4768 5.62684 10.1114L4.25806 8.74297ZM5.41935 11.6129C5.41935 12.2532 4.89832 12.7742 4.25806 12.7742C3.61781 12.7742 3.09677 12.2532 3.09677 11.6129V11.4801C3.09677 11.1697 3.21755 10.8778 3.43665 10.6587L4.25806 9.83768L5.07948 10.6587C5.29858 10.8782 5.41935 11.1697 5.41935 11.4801V11.6129Z" fill="black"/>
</svg>
