<svg width="19" height="26" viewBox="0 0 19 26" fill="none" xmlns="http://www.w3.org/2000/svg">
<path d="M17.4167 25.3333H1.58333C1.44336 25.3333 1.30912 25.2777 1.21014 25.1787C1.11116 25.0798 1.05556 24.9455 1.05556 24.8056V2.63888C1.05556 2.49891 1.11116 2.36467 1.21014 2.26569C1.30912 2.16671 1.44336 2.11111 1.58333 2.11111H17.4167C17.5566 2.11111 17.6909 2.16671 17.7899 2.26569C17.8888 2.36467 17.9444 2.49891 17.9444 2.63888V24.8056C17.9444 24.9455 17.8888 25.0798 17.7899 25.1787C17.6909 25.2777 17.5566 25.3333 17.4167 25.3333ZM2.11111 24.2778H16.8889V3.16666H2.11111V24.2778Z" fill="black"/>
<path d="M15.3056 3.16667C15.1656 3.16667 15.0313 3.11106 14.9324 3.01208C14.8334 2.91311 14.7778 2.77886 14.7778 2.63889V1.05556H11.6111V2.63889C11.6111 2.77886 11.5555 2.91311 11.4565 3.01208C11.3575 3.11106 11.2233 3.16667 11.0833 3.16667C10.9434 3.16667 10.8091 3.11106 10.7101 3.01208C10.6112 2.91311 10.5556 2.77886 10.5556 2.63889V0.527778C10.5556 0.387802 10.6112 0.25356 10.7101 0.154583C10.8091 0.055605 10.9434 0 11.0833 0L15.3056 0C15.4455 0 15.5798 0.055605 15.6787 0.154583C15.7777 0.25356 15.8333 0.387802 15.8333 0.527778V2.63889C15.8333 2.77886 15.7777 2.91311 15.6787 3.01208C15.5798 3.11106 15.4455 3.16667 15.3056 3.16667Z" fill="black"/>
<path d="M18.4722 3.16666H0.527778C0.387802 3.16666 0.25356 3.11106 0.154583 3.01208C0.0556051 2.9131 0 2.77886 0 2.63888C0 2.49891 0.0556051 2.36467 0.154583 2.26569C0.25356 2.16671 0.387802 2.11111 0.527778 2.11111H18.4722C18.6122 2.11111 18.7464 2.16671 18.8454 2.26569C18.9444 2.36467 19 2.49891 19 2.63888C19 2.77886 18.9444 2.9131 18.8454 3.01208C18.7464 3.11106 18.6122 3.16666 18.4722 3.16666ZM18.4722 25.3333H0.527778C0.387802 25.3333 0.25356 25.2777 0.154583 25.1787C0.0556051 25.0798 0 24.9455 0 24.8056C0 24.6656 0.0556051 24.5313 0.154583 24.4324C0.25356 24.3334 0.387802 24.2778 0.527778 24.2778H18.4722C18.6122 24.2778 18.7464 24.3334 18.8454 24.4324C18.9444 24.5313 19 24.6656 19 24.8056C19 24.9455 18.9444 25.0798 18.8454 25.1787C18.7464 25.2777 18.6122 25.3333 18.4722 25.3333ZM18.4722 8.44444H0.527778C0.387802 8.44444 0.25356 8.38884 0.154583 8.28986C0.0556051 8.19088 0 8.05664 0 7.91666C0 7.77669 0.0556051 7.64244 0.154583 7.54347C0.25356 7.44449 0.387802 7.38888 0.527778 7.38888H18.4722C18.6122 7.38888 18.7464 7.44449 18.8454 7.54347C18.9444 7.64244 19 7.77669 19 7.91666C19 8.05664 18.9444 8.19088 18.8454 8.28986C18.7464 8.38884 18.6122 8.44444 18.4722 8.44444ZM18.4722 20.0556H0.527778C0.387802 20.0556 0.25356 19.9999 0.154583 19.901C0.0556051 19.802 0 19.6677 0 19.5278C0 19.3878 0.0556051 19.2536 0.154583 19.1546C0.25356 19.0556 0.387802 19 0.527778 19H18.4722C18.6122 19 18.7464 19.0556 18.8454 19.1546C18.9444 19.2536 19 19.3878 19 19.5278C19 19.6677 18.9444 19.802 18.8454 19.901C18.7464 19.9999 18.6122 20.0556 18.4722 20.0556ZM9.5 17.9444C7.97683 17.9444 6.33333 16.9026 6.33333 15.2179C6.33333 13.7887 8.626 10.811 9.08517 10.2283C9.1365 10.1687 9.20008 10.1209 9.27158 10.0881C9.34308 10.0553 9.42082 10.0384 9.49947 10.0384C9.57813 10.0384 9.65586 10.0553 9.72736 10.0881C9.79886 10.1209 9.86245 10.1687 9.91378 10.2283C10.374 10.811 12.6667 13.7877 12.6667 15.2179C12.6667 16.9026 11.0232 17.9444 9.5 17.9444ZM9.5 11.4243C8.51622 12.7501 7.38889 14.5339 7.38889 15.2179C7.38889 16.2503 8.48456 16.8889 9.5 16.8889C10.5154 16.8889 11.6111 16.2503 11.6111 15.2179C11.6111 14.535 10.4838 12.7501 9.5 11.4243Z" fill="black"/>
</svg>
