<svg width="35" height="35" viewBox="0 0 35 35" fill="none" xmlns="http://www.w3.org/2000/svg">
<path d="M24.7461 12.4885V5.97598C25.9396 5.5527 26.7969 4.41294 26.7969 3.07617C26.7969 1.37997 25.4169 0 23.7207 0H3.07617C1.37997 0 0 1.37997 0 3.07617C0 4.41294 0.857295 5.5527 2.05078 5.97598V14.6686C0.857295 15.0918 0 16.2316 0 17.5684C0 18.9051 0.857295 20.0449 2.05078 20.4682V29.024C0.857295 29.4473 0 30.5871 0 31.9238C0 33.62 1.37997 35 3.07617 35H23.7207C29.9401 35 35 29.9401 35 23.7207C35 17.8469 30.4867 13.0083 24.7461 12.4885ZM3.07617 2.05078H23.7207C24.2861 2.05078 24.7461 2.51077 24.7461 3.07617C24.7461 3.64157 24.2861 4.10156 23.7207 4.10156H3.07617C2.51077 4.10156 2.05078 3.64157 2.05078 3.07617C2.05078 2.51077 2.51077 2.05078 3.07617 2.05078ZM22.6953 6.15234V12.488C20.6644 12.6697 18.786 13.385 17.2039 14.4922H4.10156V6.15234H22.6953ZM3.07617 16.543H14.9736C14.4474 17.1751 13.9917 17.8628 13.6145 18.5938H3.07617C2.51077 18.5938 2.05078 18.1338 2.05078 17.5684C2.05078 17.003 2.51077 16.543 3.07617 16.543ZM13.6145 28.8477H4.10156V20.6445H12.8021C12.5167 21.645 12.3723 22.6804 12.373 23.7207C12.373 25.5657 12.8211 27.3085 13.6145 28.8477ZM3.07617 32.9492C2.51077 32.9492 2.05078 32.4892 2.05078 31.9238C2.05078 31.3584 2.51077 30.8984 3.07617 30.8984H14.9736C15.6226 31.6781 16.3726 32.3678 17.2039 32.9492H3.07617ZM23.7207 32.9492C20.789 32.9492 18.1705 31.5948 16.4652 29.4838C16.3967 29.3179 16.286 29.1729 16.144 29.0631C15.0613 27.5544 14.4238 25.7101 14.4238 23.7207C14.4238 22.5119 14.6596 21.3568 15.0872 20.2979C15.2285 20.1391 15.3167 19.9402 15.3394 19.7289C15.9665 18.4367 16.8883 17.3111 18.0175 16.4378C18.1302 16.3825 18.2318 16.3071 18.3172 16.2153C19.8411 15.1312 21.707 14.4922 23.7207 14.4922C28.8093 14.4922 32.9492 18.6321 32.9492 23.7207C32.9492 28.8093 28.8093 32.9492 23.7207 32.9492Z" fill="black"/>
<path d="M26.6584 20.3059C25.6246 18.5238 24.6072 17.0475 24.5644 16.9856C24.4701 16.8491 24.344 16.7374 24.1971 16.6603C24.0501 16.5832 23.8867 16.543 23.7207 16.543C23.5548 16.543 23.3913 16.5832 23.2443 16.6603C23.0974 16.7374 22.9713 16.8491 22.877 16.9856C22.8342 17.0475 21.8168 18.5238 20.783 20.3059C19.3099 22.8454 18.5938 24.6332 18.5938 25.7715C18.5938 28.5985 20.8937 30.8984 23.7207 30.8984C26.5477 30.8984 28.8477 28.5985 28.8477 25.7715C28.8477 24.6332 28.1315 22.8454 26.6584 20.3059ZM23.7207 28.8477C22.0245 28.8477 20.6445 27.4677 20.6445 25.7715C20.6445 24.6516 22.2448 21.7287 23.7207 19.4225C25.1966 21.7287 26.7969 24.6516 26.7969 25.7715C26.7969 27.4677 25.4169 28.8477 23.7207 28.8477Z" fill="black"/>
</svg>
