<svg width="36" height="48" viewBox="0 0 36 48" fill="none" xmlns="http://www.w3.org/2000/svg">
<path d="M30 29.24V19.17C31.2 18.09 31 17.01 31 14.96C31.0008 14.5416 30.9119 14.1279 30.7394 13.7467C30.567 13.3654 30.3148 13.0256 30 12.75C30 -4.25 6 -4.25 6 12.75C5.68569 13.026 5.4339 13.3659 5.26145 13.7471C5.089 14.1282 4.99987 14.5417 5 14.96C5 16.79 4.77 18.06 6 19.17V29.24C4.3354 29.4803 2.81295 30.3118 1.71118 31.5825C0.609407 32.8532 0.00197111 34.4782 0 36.16V46.96C0 47.2252 0.105357 47.4796 0.292893 47.6671C0.48043 47.8546 0.734784 47.96 1 47.96H35C35.2652 47.96 35.5196 47.8546 35.7071 47.6671C35.8946 47.4796 36 47.2252 36 46.96V36.16C35.998 34.4782 35.3906 32.8532 34.2888 31.5825C33.187 30.3118 31.6646 29.4803 30 29.24ZM22 28.09C22 24.9 21.72 26.25 23.06 24.97C24.4 23.69 22.93 23.97 27 23.97C27.3411 23.9673 27.6793 23.9064 28 23.79V28.96L22 28.09ZM8 28.96V19.96C10.93 19.96 10.56 19.96 10.57 20.05C10.6518 21.2073 11.0049 22.3291 11.6008 23.3245C12.1967 24.32 13.0186 25.1612 14 25.78V28.09L8 28.96ZM10.14 13.96L10.42 17.96H8C7.73478 17.96 7.48043 17.8546 7.29289 17.6671C7.10536 17.4796 7 17.2252 7 16.96C7 13.73 6.64 13.96 10.14 13.96ZM28 13.96C28.2652 13.96 28.5196 14.0654 28.7071 14.2529C28.8946 14.4404 29 14.6948 29 14.96C29 18.26 29.37 17.96 25.58 17.96L25.86 13.96H28ZM28 20.96C28 21.2252 27.8946 21.4796 27.7071 21.6671C27.5196 21.8546 27.2652 21.96 27 21.96H25C25.2319 21.3165 25.37 20.6429 25.41 19.96H28V20.96ZM22.85 21.96H20C19.7348 21.96 19.4804 22.0654 19.2929 22.2529C19.1054 22.4404 19 22.6948 19 22.96C19 23.2252 19.1054 23.4796 19.2929 23.6671C19.4804 23.8546 19.7348 23.96 20 23.96H21.14C20.3555 24.5128 19.4389 24.8486 18.4829 24.9334C17.527 25.0183 16.5656 24.8492 15.6959 24.4433C14.8263 24.0374 14.0792 23.4091 13.5303 22.6218C12.9814 21.8346 12.6502 20.9164 12.57 19.96C12 11.96 11.99 12.74 12.2 12.67C13.4335 12.2544 14.5113 11.4731 15.29 10.43C17.8642 12.0923 20.8658 12.9712 23.93 12.96C23.4 20.36 23.52 20.64 22.85 21.96ZM18 30.55L16 28.55V26.67C17.3055 27.055 18.6945 27.055 20 26.67V28.55L18 30.55ZM14.65 30.02L16.59 31.96L14.14 34.41L11.4 30.48L14.65 30.02ZM21.35 30.02L24.6 30.48L21.86 34.41L19.41 31.96L21.35 30.02ZM10.93 4.89C12.3285 3.49191 14.1102 2.53984 16.0497 2.15417C17.9892 1.76849 19.9995 1.96652 21.8265 2.72322C23.6535 3.47992 25.2152 4.76132 26.314 6.40542C27.4129 8.04951 27.9996 9.9825 28 11.96H26C26 9.73 21.51 12.59 15.61 8.16C15.4931 8.07283 15.3586 8.01227 15.2158 7.98259C15.073 7.9529 14.9255 7.9548 14.7835 7.98814C14.6416 8.02149 14.5086 8.08548 14.394 8.17562C14.2794 8.26577 14.1859 8.3799 14.12 8.51C12.67 11.39 10 10.34 10 11.96H8C7.99533 10.6462 8.25197 9.3445 8.75498 8.13075C9.25799 6.917 9.99734 5.81539 10.93 4.89ZM34 45.96H29V38.96C29 38.6948 28.8946 38.4404 28.7071 38.2529C28.5196 38.0654 28.2652 37.96 28 37.96C27.7348 37.96 27.4804 38.0654 27.2929 38.2529C27.1054 38.4404 27 38.6948 27 38.96V45.96H9V38.96C9 38.6948 8.89464 38.4404 8.70711 38.2529C8.51957 38.0654 8.26522 37.96 8 37.96C7.73478 37.96 7.48043 38.0654 7.29289 38.2529C7.10536 38.4404 7 38.6948 7 38.96V45.96H2V36.16C1.98773 34.9482 2.41596 33.7732 3.20507 32.8535C3.99417 31.9338 5.09044 31.332 6.29 31.16L9.18 30.75C13.47 36.9 13.27 36.85 13.91 36.91C14.55 36.97 14.4 36.91 18 33.32C21.55 36.96 21.46 37.01 22.09 36.96C22.72 36.91 22.53 36.96 26.82 30.8L29.71 31.21C30.9096 31.382 32.0058 31.9838 32.7949 32.9035C33.584 33.8232 34.0123 34.9982 34 36.21V45.96Z" fill="black"/>
<path d="M17.29 42.25C17.1017 42.4383 16.9959 42.6937 16.9959 42.96C16.9959 43.2263 17.1017 43.4817 17.29 43.67C17.4783 43.8583 17.7337 43.9641 18 43.9641C18.2663 43.9641 18.5217 43.8583 18.71 43.67C18.8983 43.4817 19.0041 43.2263 19.0041 42.96C19.0041 42.6937 18.8983 42.4383 18.71 42.25C18.5217 42.0617 18.2663 41.9559 18 41.9559C17.7337 41.9559 17.4783 42.0617 17.29 42.25ZM17.29 38.25C17.151 38.3902 17.0565 38.5684 17.0186 38.7621C16.9807 38.9559 17.001 39.1565 17.0769 39.3388C17.1528 39.521 17.281 39.6767 17.4453 39.7862C17.6096 39.8958 17.8026 39.9542 18 39.9542C18.1974 39.9542 18.3904 39.8958 18.5547 39.7862C18.719 39.6767 18.8472 39.521 18.9231 39.3388C18.999 39.1565 19.0193 38.9559 18.9814 38.7621C18.9435 38.5684 18.849 38.3902 18.71 38.25C18.617 38.1563 18.5064 38.0819 18.3846 38.0311C18.2627 37.9803 18.132 37.9542 18 37.9542C17.868 37.9542 17.7373 37.9803 17.6154 38.0311C17.4936 38.0819 17.383 38.1563 17.29 38.25Z" fill="black"/>
</svg>
