<svg width="48" height="48" viewBox="0 0 48 48" fill="none" xmlns="http://www.w3.org/2000/svg">
<path d="M44 27C44 26.2044 43.6839 25.4413 43.1213 24.8787C42.5587 24.3161 41.7956 24 41 24V17C41 12.4913 39.2089 8.1673 36.0208 4.97918C32.8327 1.79107 28.5087 0 24 0C19.4913 0 15.1673 1.79107 11.9792 4.97918C8.79107 8.1673 7 12.4913 7 17V24C6.20435 24 5.44129 24.3161 4.87868 24.8787C4.31607 25.4413 4 26.2044 4 27C2.93913 27 1.92172 27.4214 1.17157 28.1716C0.421427 28.9217 0 29.9391 0 31C0 32.0609 0.421427 33.0783 1.17157 33.8284C1.92172 34.5786 2.93913 35 4 35C4 35.7956 4.31607 36.5587 4.87868 37.1213C5.44129 37.6839 6.20435 38 7 38H10C10.5304 38 11.0391 37.7893 11.4142 37.4142C11.7893 37.0391 12 36.5304 12 36V26C12 25.4696 11.7893 24.9609 11.4142 24.5858C11.0391 24.2107 10.5304 24 10 24H9C9 17.1 8.57 14.16 10.71 10.08C11.7016 10.4517 12.7778 10.5372 13.8157 10.3268C14.8536 10.1164 15.8114 9.61854 16.58 8.89C18.6072 7.03767 21.254 6.01057 24 6.01057C26.746 6.01057 29.3928 7.03767 31.42 8.89C32.1909 9.61481 33.1492 10.1095 34.1865 10.318C35.2239 10.5265 36.2989 10.4406 37.29 10.07C39.45 14.19 39 17.22 39 24H38C37.4696 24 36.9609 24.2107 36.5858 24.5858C36.2107 24.9609 36 25.4696 36 26V36C36 36.5304 36.2107 37.0391 36.5858 37.4142C36.9609 37.7893 37.4696 38 38 38H39V41C39 41.7956 38.6839 42.5587 38.1213 43.1213C37.5587 43.6839 36.7956 44 36 44H28.82C28.6137 43.4165 28.2319 42.911 27.7271 42.5529C27.2222 42.1949 26.6189 42.0017 26 42H22C21.2044 42 20.4413 42.3161 19.8787 42.8787C19.3161 43.4413 19 44.2044 19 45C19 45.7956 19.3161 46.5587 19.8787 47.1213C20.4413 47.6839 21.2044 48 22 48H26C26.6189 47.9983 27.2222 47.8051 27.7271 47.4471C28.2319 47.089 28.6137 46.5835 28.82 46H36C36.6566 46 37.3068 45.8707 37.9134 45.6194C38.52 45.3681 39.0712 44.9998 39.5355 44.5355C39.9998 44.0712 40.3681 43.52 40.6194 42.9134C40.8707 42.3068 41 41.6566 41 41V38C41.7956 38 42.5587 37.6839 43.1213 37.1213C43.6839 36.5587 44 35.7956 44 35C45.0609 35 46.0783 34.5786 46.8284 33.8284C47.5786 33.0783 48 32.0609 48 31C48 29.9391 47.5786 28.9217 46.8284 28.1716C46.0783 27.4214 45.0609 27 44 27ZM2 31C2 30.4696 2.21071 29.9609 2.58579 29.5858C2.96086 29.2107 3.46957 29 4 29V33C3.46957 33 2.96086 32.7893 2.58579 32.4142C2.21071 32.0391 2 31.5304 2 31ZM10 36H7C6.73478 36 6.48043 35.8946 6.29289 35.7071C6.10536 35.5196 6 35.2652 6 35V27C6 26.7348 6.10536 26.4804 6.29289 26.2929C6.48043 26.1054 6.73478 26 7 26H10V36ZM32.77 7.41C30.3741 5.22037 27.2457 4.0062 24 4.0062C20.7543 4.0062 17.6259 5.22037 15.23 7.41C14.7778 7.83643 14.2266 8.14376 13.6262 8.30436C13.0257 8.46495 12.3947 8.47376 11.79 8.33C13.1776 6.38554 15.0094 4.80058 17.1332 3.70703C19.257 2.61349 21.6112 2.04297 24 2.04297C26.3888 2.04297 28.743 2.61349 30.8668 3.70703C32.9906 4.80058 34.8224 6.38554 36.21 8.33C35.6054 8.47651 34.9737 8.46907 34.3728 8.30834C33.7718 8.14762 33.2207 7.83875 32.77 7.41ZM26 46H22C21.7348 46 21.4804 45.8946 21.2929 45.7071C21.1054 45.5196 21 45.2652 21 45C21 44.7348 21.1054 44.4804 21.2929 44.2929C21.4804 44.1054 21.7348 44 22 44H26C26.2652 44 26.5196 44.1054 26.7071 44.2929C26.8946 44.4804 27 44.7348 27 45C27 45.2652 26.8946 45.5196 26.7071 45.7071C26.5196 45.8946 26.2652 46 26 46ZM42 35C42 35.2652 41.8946 35.5196 41.7071 35.7071C41.5196 35.8946 41.2652 36 41 36H38V26H41C41.2652 26 41.5196 26.1054 41.7071 26.2929C41.8946 26.4804 42 26.7348 42 27V35ZM44 33V29C44.5304 29 45.0391 29.2107 45.4142 29.5858C45.7893 29.9609 46 30.4696 46 31C46 31.5304 45.7893 32.0391 45.4142 32.4142C45.0391 32.7893 44.5304 33 44 33Z" fill="black"/>
<path d="M24 17C24.164 16.9991 24.3253 16.9578 24.4696 16.8798C24.6139 16.8018 24.7368 16.6895 24.8275 16.5528C24.9182 16.4161 24.9738 16.2592 24.9896 16.096C25.0053 15.9327 24.9806 15.7681 24.9177 15.6166C24.8548 15.4651 24.7556 15.3314 24.6289 15.2273C24.5021 15.1232 24.3517 15.0518 24.1909 15.0196C24.0301 14.9873 23.8638 14.9951 23.7067 15.0423C23.5496 15.0894 23.4065 15.1745 23.29 15.29C23.149 15.4299 23.0528 15.6086 23.0137 15.8033C22.9746 15.9981 22.9945 16.2001 23.0706 16.3835C23.1468 16.5669 23.2759 16.7235 23.4414 16.8333C23.6069 16.9431 23.8014 17.0012 24 17ZM26 27C26.2652 27 26.5196 26.8947 26.7071 26.7071C26.8946 26.5196 27 26.2652 27 26C27 25.7348 26.8946 25.4804 26.7071 25.2929C26.5196 25.1054 26.2652 25 26 25H25V20C25 19.7348 24.8946 19.4804 24.7071 19.2929C24.5196 19.1054 24.2652 19 24 19H23C22.7348 19 22.4804 19.1054 22.2929 19.2929C22.1054 19.4804 22 19.7348 22 20C22 20.2652 22.1054 20.5196 22.2929 20.7071C22.4804 20.8947 22.7348 21 23 21V25H22C21.7348 25 21.4804 25.1054 21.2929 25.2929C21.1054 25.4804 21 25.7348 21 26C21 26.2652 21.1054 26.5196 21.2929 26.7071C21.4804 26.8947 21.7348 27 22 27H26Z" fill="black"/>
<path d="M35 21C35 18.8244 34.3549 16.6977 33.1462 14.8887C31.9375 13.0798 30.2195 11.6699 28.2095 10.8373C26.1995 10.0048 23.9878 9.78693 21.854 10.2114C19.7202 10.6358 17.7602 11.6835 16.2218 13.2218C14.6835 14.7602 13.6358 16.7202 13.2114 18.854C12.7869 20.9878 13.0048 23.1995 13.8373 25.2095C14.6699 27.2195 16.0798 28.9375 17.8887 30.1462C19.6977 31.3549 21.8244 32 24 32C26.9174 32 29.7153 30.8411 31.7782 28.7782C33.8411 26.7153 35 23.9174 35 21ZM15 21C15 19.22 15.5278 17.4799 16.5168 15.9999C17.5057 14.5198 18.9113 13.3663 20.5559 12.6851C22.2004 12.0039 24.01 11.8257 25.7558 12.1729C27.5016 12.5202 29.1053 13.3774 30.364 14.636C31.6226 15.8947 32.4798 17.4984 32.8271 19.2442C33.1743 20.99 32.9961 22.7996 32.3149 24.4442C31.6337 26.0887 30.4802 27.4943 29.0001 28.4832C27.5201 29.4722 25.78 30 24 30C21.6131 30 19.3239 29.0518 17.636 27.364C15.9482 25.6761 15 23.387 15 21Z" fill="black"/>
</svg>
