<svg width="20" height="20" viewBox="0 0 20 20" fill="none" xmlns="http://www.w3.org/2000/svg">
<path d="M10 0C7.34784 0 4.8043 1.05357 2.92893 2.92893C1.05357 4.8043 0 7.34784 0 10C0 12.6522 1.05357 15.1957 2.92893 17.0711C4.8043 18.9464 7.34784 20 10 20C12.6522 20 15.1957 18.9464 17.0711 17.0711C18.9464 15.1957 20 12.6522 20 10C20 7.34784 18.9464 4.8043 17.0711 2.92893C15.1957 1.05357 12.6522 0 10 0ZM10 18C8.94936 18 7.90901 17.7931 6.93834 17.391C5.96768 16.9889 5.08571 16.3996 4.34279 15.6567C3.59988 14.9138 3.01056 14.0318 2.6085 13.0612C2.20644 12.0905 1.9995 11.0501 1.9995 9.9995C1.9995 8.94886 2.20644 7.90851 2.6085 6.93784C3.01056 5.96718 3.59988 5.08521 4.34279 4.34229C5.08571 3.59938 5.96768 3.01006 6.93834 2.608C7.90901 2.20594 8.94936 1.999 10 1.999C12.1219 1.999 14.1568 2.84191 15.6572 4.34229C17.1576 5.84268 18.0005 7.87764 18.0005 9.9995C18.0005 12.1214 17.1576 14.1563 15.6572 15.6567C14.1568 17.1571 12.1219 18 10 18Z" fill="black"/>
<path d="M14 8C14 7.20435 13.6839 6.44129 13.1213 5.87868C12.5587 5.31607 11.7956 5 11 5H6V15H8V11H9.46L12.13 15H14.53L11.78 10.88C12.4143 10.7092 12.975 10.335 13.3761 9.81468C13.7771 9.29441 13.9963 8.65689 14 8ZM11 9H8V7H11C11.2652 7 11.5196 7.10536 11.7071 7.29289C11.8946 7.48043 12 7.73478 12 8C12 8.26522 11.8946 8.51957 11.7071 8.70711C11.5196 8.89464 11.2652 9 11 9Z" fill="black"/>
</svg>
