<svg width="204" height="45" viewBox="0 0 204 45" fill="none" xmlns="http://www.w3.org/2000/svg">
<path d="M24.1178 34.2532C29.3889 33.5842 33.6469 29.3222 34.3194 24.042C34.5542 22.2398 34.3723 20.4077 33.7876 18.6871C33.2029 16.9664 32.2311 15.4032 30.9471 14.1181C29.6632 12.833 28.1015 11.8602 26.3824 11.275C24.6634 10.6897 22.833 10.5076 21.0325 10.7426C15.7573 11.4158 11.4993 15.6778 10.8309 20.9538C10.5961 22.756 10.7781 24.5881 11.3628 26.3087C11.9475 28.0294 12.9193 29.5926 14.2032 30.8777C15.4871 32.1628 17.0489 33.1356 18.7679 33.7208C20.4869 34.3061 22.3173 34.4882 24.1178 34.2532ZM24.8366 0.39262C29.9114 0.927349 34.6489 3.18964 38.2571 6.80125C41.8653 10.4129 44.1255 15.1548 44.6598 20.2344C46.0511 34.2868 34.3489 46 20.3053 44.6074C15.2313 44.0717 10.4948 41.809 6.8874 38.1975C3.28002 34.586 1.02045 29.8445 0.48639 24.7656C-0.90493 10.7132 10.7973 -1 24.8366 0.39262ZM56.5721 1.27195H89.0685C90.3043 1.27195 91.0021 2.68561 90.2581 3.67012L67.7742 33.3612H85.3905C88.6019 33.3612 91.1282 36.2853 90.464 39.6175C89.9764 42.0619 87.6856 43.728 85.1972 43.728H49.9056C48.6824 43.728 47.9888 42.327 48.7244 41.3551L71.2251 11.6388H56.7655C54.2771 11.6388 51.9862 9.96849 51.4987 7.52824C50.8303 4.19604 53.3608 1.27195 56.5721 1.27195ZM197.6 1.38976C200.954 0.682925 203.905 3.22415 203.905 6.45537V42.2302C203.905 43.4798 202.463 44.174 201.488 43.3999L173.456 21.1389V38.553C173.456 41.7843 170.505 44.3255 167.151 43.6187C164.746 43.1138 163.099 40.8713 163.099 38.4142V2.76555C163.099 1.51598 164.54 0.821767 165.515 1.59591L193.552 23.8569V6.59421C193.552 4.13714 195.204 1.89884 197.604 1.38976H197.6ZM124.608 0.279022C141.771 0.279022 155.684 10.2251 155.684 22.4937C155.684 34.7622 141.771 44.7084 124.608 44.7084C107.446 44.7084 93.5325 34.7622 93.5325 22.4937C93.5325 10.2251 107.446 0.279022 124.608 0.279022ZM124.608 10.6459C112.75 10.6459 103.89 16.9022 103.89 22.4937C103.89 28.0852 112.75 34.3415 124.608 34.3415C136.466 34.3415 145.327 28.0894 145.327 22.4937C145.327 16.8979 136.466 10.6459 124.608 10.6459Z" fill="#005BFF"/>
</svg>
