<svg width="48" height="42" viewBox="0 0 48 42" fill="none" xmlns="http://www.w3.org/2000/svg">
<path d="M45.31 21.9231C45.7165 21.3218 45.9516 20.6211 45.9903 19.8964C46.029 19.1716 45.8698 18.4499 45.5297 17.8087C45.1895 17.1675 44.6814 16.6309 44.0596 16.2565C43.4378 15.882 42.7258 15.6838 42 15.6831H29.69C31.2108 12.6367 32.0017 9.27805 32 5.8731C32 0.243102 24.6 -2.1269 23.61 2.3131L22.74 6.2531C21.91 9.9831 19.5 13.4631 15.74 14.7131L13.34 15.5131C12.9793 14.9545 12.4849 14.4946 11.9018 14.1751C11.3186 13.8556 10.665 13.6865 10 13.6831H1C0.734784 13.6831 0.48043 13.7885 0.292893 13.976C0.105357 14.1635 0 14.4179 0 14.6831L0 40.6831C0 40.9483 0.105357 41.2027 0.292893 41.3902C0.48043 41.5777 0.734784 41.6831 1 41.6831H10C10.6596 41.6824 11.3088 41.5187 11.8898 41.2063C12.4708 40.894 12.9656 40.4429 13.33 39.8931C19.29 42.2631 22.52 41.6831 41 41.6831C41.7258 41.6824 42.4378 41.4842 43.0596 41.1097C43.6814 40.7353 44.1895 40.1987 44.5297 39.5575C44.8698 38.9163 45.029 38.1946 44.9903 37.4698C44.9516 36.7451 44.7165 36.0444 44.31 35.4431C44.9155 35.223 45.4589 34.86 45.8939 34.3848C46.329 33.9097 46.6429 33.3365 46.8088 32.7139C46.9747 32.0914 46.9878 31.438 46.847 30.8094C46.7062 30.1807 46.4156 29.5953 46 29.1031C46.6455 28.7135 47.1677 28.1493 47.5065 27.4757C47.8453 26.8021 47.9867 26.0465 47.9146 25.296C47.8425 24.5454 47.5597 23.8306 47.0989 23.2338C46.638 22.637 46.0179 22.1827 45.31 21.9231ZM10 39.6831H2V15.6831H10C10.5304 15.6831 11.0391 15.8938 11.4142 16.2689C11.7893 16.644 12 17.1527 12 17.6831V37.6831C12 38.2135 11.7893 38.7222 11.4142 39.0973C11.0391 39.4724 10.5304 39.6831 10 39.6831ZM43 33.6831H38C37.7348 33.6831 37.4804 33.7885 37.2929 33.976C37.1054 34.1635 37 34.4179 37 34.6831C37 34.9483 37.1054 35.2027 37.2929 35.3902C37.4804 35.5777 37.7348 35.6831 38 35.6831H41C41.5304 35.6831 42.0391 35.8938 42.4142 36.2689C42.7893 36.644 43 37.1527 43 37.6831C43 38.2135 42.7893 38.7222 42.4142 39.0973C42.0391 39.4724 41.5304 39.6831 41 39.6831C21.77 39.6831 19.57 40.2131 14 38.0031V17.6831C14 17.2931 13.64 17.5231 16.38 16.6131C20.86 15.1131 23.72 11.0431 24.69 6.6931L25.57 2.7531C26 0.923102 30 2.5531 30 5.8731C29.9939 9.50931 29.0021 13.0758 27.13 16.1931C27.0445 16.3451 27.0003 16.5169 27.0018 16.6913C27.0032 16.8657 27.0502 17.0367 27.1382 17.1873C27.2261 17.338 27.3519 17.463 27.5031 17.5499C27.6543 17.6369 27.8256 17.6828 28 17.6831H42C42.5304 17.6831 43.0391 17.8938 43.4142 18.2689C43.7893 18.644 44 19.1527 44 19.6831C44 20.2135 43.7893 20.7222 43.4142 21.0973C43.0391 21.4724 42.5304 21.6831 42 21.6831H38C37.7348 21.6831 37.4804 21.7885 37.2929 21.976C37.1054 22.1635 37 22.4179 37 22.6831C37 22.9483 37.1054 23.2027 37.2929 23.3902C37.4804 23.5777 37.7348 23.6831 38 23.6831H44C44.5304 23.6831 45.0391 23.8938 45.4142 24.2689C45.7893 24.644 46 25.1527 46 25.6831C46 26.2135 45.7893 26.7222 45.4142 27.0973C45.0391 27.4724 44.5304 27.6831 44 27.6831H38C37.7348 27.6831 37.4804 27.7885 37.2929 27.976C37.1054 28.1635 37 28.4179 37 28.6831C37 28.9483 37.1054 29.2027 37.2929 29.3902C37.4804 29.5777 37.7348 29.6831 38 29.6831H43C43.5304 29.6831 44.0391 29.8938 44.4142 30.2689C44.7893 30.644 45 31.1527 45 31.6831C45 32.2135 44.7893 32.7222 44.4142 33.0973C44.0391 33.4724 43.5304 33.6831 43 33.6831Z" fill="black"/>
<path d="M8.29 35.9731C8.1017 36.1614 7.99591 36.4168 7.99591 36.6831C7.99591 36.9494 8.1017 37.2048 8.29 37.3931C8.47831 37.5814 8.7337 37.6872 9 37.6872C9.2663 37.6872 9.5217 37.5814 9.71 37.3931C9.89831 37.2048 10.0041 36.9494 10.0041 36.6831C10.0041 36.4168 9.89831 36.1614 9.71 35.9731C9.5217 35.7848 9.2663 35.679 9 35.679C8.7337 35.679 8.47831 35.7848 8.29 35.9731Z" fill="black"/>
</svg>
