<svg width="23" height="25" viewBox="0 0 23 25" fill="none" xmlns="http://www.w3.org/2000/svg">
<path d="M21.1411 15.7485L15.5146 12.5L21.1411 9.25151C22.1921 8.64478 22.5521 7.30098 21.9454 6.25C21.3386 5.19912 19.9949 4.83892 18.9439 5.44575L13.3173 8.69424V2.19727C13.3173 0.98374 12.3336 0 11.1201 0C9.90655 0 8.92281 0.98374 8.92281 2.19727V8.69424L3.2963 5.44575C2.24522 4.83896 0.901474 5.19907 0.294736 6.25C-0.312002 7.30093 0.0480562 8.64478 1.09898 9.25151L6.7256 12.5L1.09903 15.7485C0.048105 16.3552 -0.312002 17.6991 0.294736 18.75C0.701718 19.455 1.44024 19.849 2.19967 19.849C2.58477 19.849 2.96305 19.7473 3.29625 19.5542L8.92281 16.3058V22.8027C8.92281 24.0163 9.90655 25 11.1201 25C12.3336 25 13.3173 24.0163 13.3173 22.8027V16.3058L18.9439 19.5542C19.2771 19.7473 19.6553 19.849 20.0404 19.849C20.7998 19.849 21.5384 19.4549 21.9454 18.75C22.5522 17.6991 22.1921 16.3552 21.1411 15.7485Z" fill="#FF0000"/>
</svg>
