<svg width="28" height="28" viewBox="0 0 28 28" fill="none" xmlns="http://www.w3.org/2000/svg">
<path d="M15.7137 25.4876H14.6337V18.007C16.1496 17.6154 17.3454 16.4196 17.737 14.9037H23.6516C24.2481 14.9037 24.7316 14.4202 24.7316 13.8238V2.15996H25.8656C26.462 2.15996 26.9455 1.67645 26.9455 1.07998C26.9455 0.483508 26.462 0 25.8656 0H21.5456C20.9492 0 20.4656 0.483508 20.4656 1.07998C20.4656 1.67645 20.9492 2.15996 21.5456 2.15996H22.5716V12.7438H17.737C17.3455 11.228 16.1496 10.0321 14.6337 9.64056V2.15996H15.7137C16.3102 2.15996 16.7937 1.67645 16.7937 1.07998C16.7937 0.483508 16.3102 0 15.7137 0H11.3938C10.7973 0 10.3138 0.483508 10.3138 1.07998C10.3138 1.67645 10.7973 2.15996 11.3938 2.15996H12.4738V9.64056C10.958 10.0321 9.76211 11.228 9.37051 12.7438H4.31993V2.15996H5.39991C5.99638 2.15996 6.47989 1.67645 6.47989 1.07998C6.47989 0.483508 5.99638 0 5.39991 0H1.07998C0.483508 0 0 0.483508 0 1.07998C0 1.67645 0.483508 2.15996 1.07998 2.15996H2.15996V25.4876H1.07998C0.483508 25.4876 0 25.9711 0 26.5675C0 27.164 0.483508 27.6475 1.07998 27.6475H5.39991C5.99638 27.6475 6.47989 27.164 6.47989 26.5675C6.47989 25.9711 5.99638 25.4876 5.39991 25.4876H4.31993V14.9037H9.37051C9.76206 16.4196 10.9579 17.6154 12.4738 18.007V25.4876H11.3938C10.7973 25.4876 10.3138 25.9711 10.3138 26.5675C10.3138 27.164 10.7973 27.6475 11.3938 27.6475H15.7137C16.3102 27.6475 16.7937 27.164 16.7937 26.5675C16.7937 25.9711 16.3102 25.4876 15.7137 25.4876ZM11.3938 13.8238C11.3938 12.6328 12.3628 11.6638 13.5538 11.6638C14.7448 11.6638 15.7137 12.6328 15.7137 13.8238C15.7137 15.0148 14.7448 15.9837 13.5538 15.9837C12.3628 15.9837 11.3938 15.0148 11.3938 13.8238ZM25.9023 23.6208C26.7292 23.0447 27.2718 22.0876 27.2718 21.0056C27.2718 19.2489 25.8426 17.8197 24.0859 17.8197C22.2683 17.8197 20.7896 19.2983 20.7896 21.1159V26.5675C20.7896 27.164 21.2731 27.6475 21.8696 27.6475C22.4661 27.6475 22.9496 27.164 22.9496 26.5675V24.1916H23.7701L25.2089 27.0518C25.299 27.2309 25.437 27.3814 25.6077 27.4866C25.7784 27.5918 25.9749 27.6475 26.1754 27.6475C26.9812 27.6475 27.5043 26.7981 27.1415 26.0785L25.9023 23.6208ZM22.9496 21.1159C22.9496 20.4894 23.4593 19.9797 24.0859 19.9797C24.6516 19.9797 25.1118 20.4399 25.1118 21.0056C25.1118 21.5714 24.6516 22.0316 24.0859 22.0316H22.9496V21.1159Z" fill="black"/>
</svg>
