<svg width="26" height="24" viewBox="0 0 26 24" fill="none" xmlns="http://www.w3.org/2000/svg">
<path d="M3.25023 0C2.38024 0.0234639 1.55376 0.385551 0.946719 1.00919C0.339673 1.63283 0 2.46877 0 3.33907C0 4.20937 0.339673 5.04531 0.946719 5.66895C1.55376 6.29259 2.38024 6.65468 3.25023 6.67814C4.12022 6.65468 4.94669 6.29259 5.55374 5.66895C6.16078 5.04531 6.50046 4.20937 6.50046 3.33907C6.50046 2.46877 6.16078 1.63283 5.55374 1.00919C4.94669 0.385551 4.12022 0.0234639 3.25023 0ZM3.25023 1.82131C3.65276 1.82131 4.03881 1.98122 4.32345 2.26585C4.60808 2.55049 4.76799 2.93654 4.76799 3.33907C4.76799 3.7416 4.60808 4.12765 4.32345 4.41229C4.03881 4.69692 3.65276 4.85683 3.25023 4.85683C2.84769 4.85683 2.46165 4.69692 2.17701 4.41229C1.89238 4.12765 1.73247 3.7416 1.73247 3.33907C1.73247 2.93654 1.89238 2.55049 2.17701 2.26585C2.46165 1.98122 2.84769 1.82131 3.25023 1.82131ZM3.25023 16.9989C2.38024 17.0224 1.55376 17.3845 0.946719 18.0081C0.339673 18.6317 0 19.4677 0 20.338C0 21.2083 0.339673 22.0442 0.946719 22.6678C1.55376 23.2915 2.38024 23.6536 3.25023 23.677C4.12022 23.6536 4.94669 23.2915 5.55374 22.6678C6.16078 22.0442 6.50046 21.2083 6.50046 20.338C6.50046 19.4677 6.16078 18.6317 5.55374 18.0081C4.94669 17.3845 4.12022 17.0224 3.25023 16.9989ZM3.25023 18.8202C3.44954 18.8202 3.64691 18.8595 3.83105 18.9357C4.01519 19.012 4.18251 19.1238 4.32345 19.2648C4.46438 19.4057 4.57618 19.573 4.65245 19.7571C4.72873 19.9413 4.76799 20.1387 4.76799 20.338C4.76799 20.5373 4.72873 20.7346 4.65245 20.9188C4.57618 21.1029 4.46438 21.2703 4.32345 21.4112C4.18251 21.5521 4.01519 21.6639 3.83105 21.7402C3.64691 21.8165 3.44954 21.8557 3.25023 21.8557C2.84769 21.8557 2.46165 21.6958 2.17701 21.4112C1.89238 21.1266 1.73247 20.7405 1.73247 20.338C1.73247 19.9354 1.89238 19.5494 2.17701 19.2648C2.46165 18.9801 2.84769 18.8202 3.25023 18.8202ZM12.9639 0C12.0939 0.0234639 11.2674 0.385551 10.6604 1.00919C10.0533 1.63283 9.71366 2.46877 9.71366 3.33907C9.71366 4.20937 10.0533 5.04531 10.6604 5.66895C11.2674 6.29259 12.0939 6.65468 12.9639 6.67814C13.8339 6.65468 14.6603 6.29259 15.2674 5.66895C15.8744 5.04531 16.2141 4.20937 16.2141 3.33907C16.2141 2.46877 15.8744 1.63283 15.2674 1.00919C14.6603 0.385551 13.8339 0.0234639 12.9639 0ZM12.9639 1.82131C13.3664 1.82131 13.7525 1.98122 14.0371 2.26585C14.3217 2.55049 14.4816 2.93654 14.4816 3.33907C14.4816 3.7416 14.3217 4.12765 14.0371 4.41229C13.7525 4.69692 13.3664 4.85683 12.9639 4.85683C12.5614 4.85683 12.1753 4.69692 11.8907 4.41229C11.606 4.12765 11.4461 3.7416 11.4461 3.33907C11.4461 2.93654 11.606 2.55049 11.8907 2.26585C12.1753 1.98122 12.5614 1.82131 12.9639 1.82131ZM12.9639 16.9989C12.0939 17.0224 11.2674 17.3845 10.6604 18.0081C10.0533 18.6317 9.71366 19.4677 9.71366 20.338C9.71366 21.2083 10.0533 22.0442 10.6604 22.6678C11.2674 23.2915 12.0939 23.6536 12.9639 23.677C13.8339 23.6536 14.6603 23.2915 15.2674 22.6678C15.8744 22.0442 16.2141 21.2083 16.2141 20.338C16.2141 19.4677 15.8744 18.6317 15.2674 18.0081C14.6603 17.3845 13.8339 17.0224 12.9639 16.9989ZM12.9639 18.8202C13.1632 18.8202 13.3606 18.8595 13.5447 18.9357C13.7288 19.012 13.8962 19.1238 14.0371 19.2648C14.178 19.4057 14.2898 19.573 14.3661 19.7571C14.4424 19.9413 14.4816 20.1387 14.4816 20.338C14.4816 20.5373 14.4424 20.7346 14.3661 20.9188C14.2898 21.1029 14.178 21.2703 14.0371 21.4112C13.8962 21.5521 13.7288 21.6639 13.5447 21.7402C13.3606 21.8165 13.1632 21.8557 12.9639 21.8557C12.5614 21.8557 12.1753 21.6958 11.8907 21.4112C11.606 21.1266 11.4461 20.7405 11.4461 20.338C11.4461 19.9354 11.606 19.5494 11.8907 19.2648C12.1753 18.9801 12.5614 18.8202 12.9639 18.8202ZM22.6775 0C21.8076 0.0234639 20.9811 0.385551 20.374 1.00919C19.767 1.63283 19.4273 2.46877 19.4273 3.33907C19.4273 4.20937 19.767 5.04531 20.374 5.66895C20.9811 6.29259 21.8076 6.65468 22.6775 6.67814C23.5475 6.65468 24.374 6.29259 24.9811 5.66895C25.5881 5.04531 25.9278 4.20937 25.9278 3.33907C25.9278 2.46877 25.5881 1.63283 24.9811 1.00919C24.374 0.385551 23.5475 0.0234639 22.6775 0ZM22.6775 1.82131C23.0801 1.82131 23.4661 1.98122 23.7508 2.26585C24.0354 2.55049 24.1953 2.93654 24.1953 3.33907C24.1953 3.7416 24.0354 4.12765 23.7508 4.41229C23.4661 4.69692 23.0801 4.85683 22.6775 4.85683C22.275 4.85683 21.889 4.69692 21.6043 4.41229C21.3197 4.12765 21.1598 3.7416 21.1598 3.33907C21.1598 2.93654 21.3197 2.55049 21.6043 2.26585C21.889 1.98122 22.275 1.82131 22.6775 1.82131ZM22.6775 16.9989C21.8076 17.0224 20.9811 17.3845 20.374 18.0081C19.767 18.6317 19.4273 19.4677 19.4273 20.338C19.4273 21.2083 19.767 22.0442 20.374 22.6678C20.9811 23.2915 21.8076 23.6536 22.6775 23.677C23.5475 23.6536 24.374 23.2915 24.9811 22.6678C25.5881 22.0442 25.9278 21.2083 25.9278 20.338C25.9278 19.4677 25.5881 18.6317 24.9811 18.0081C24.374 17.3845 23.5475 17.0224 22.6775 16.9989ZM22.6775 18.8202C22.8769 18.8202 23.0742 18.8595 23.2584 18.9357C23.4425 19.012 23.6098 19.1238 23.7508 19.2648C23.8917 19.4057 24.0035 19.573 24.0798 19.7571C24.156 19.9413 24.1953 20.1387 24.1953 20.338C24.1953 20.5373 24.156 20.7346 24.0798 20.9188C24.0035 21.1029 23.8917 21.2703 23.7508 21.4112C23.6098 21.5521 23.4425 21.6639 23.2584 21.7402C23.0742 21.8165 22.8769 21.8557 22.6775 21.8557C22.275 21.8557 21.889 21.6958 21.6043 21.4112C21.3197 21.1266 21.1598 20.7405 21.1598 20.338C21.1598 19.9354 21.3197 19.5494 21.6043 19.2648C21.889 18.9801 22.275 18.8202 22.6775 18.8202Z" fill="black"/>
<path d="M2.33957 5.76749V17.9096C2.33957 18.1511 2.43552 18.3827 2.6063 18.5535C2.77708 18.7243 3.00871 18.8202 3.25023 18.8202C3.49175 18.8202 3.72338 18.7243 3.89416 18.5535C4.06494 18.3827 4.16088 18.1511 4.16088 17.9096V5.76749C4.16088 5.52597 4.06494 5.29434 3.89416 5.12356C3.72338 4.95278 3.49175 4.85683 3.25023 4.85683C3.00871 4.85683 2.77708 4.95278 2.6063 5.12356C2.43552 5.29434 2.33957 5.52597 2.33957 5.76749ZM12.0532 5.76749V17.9096C12.0532 18.1511 12.1492 18.3827 12.32 18.5535C12.4907 18.7243 12.7224 18.8202 12.9639 18.8202C13.2054 18.8202 13.437 18.7243 13.6078 18.5535C13.7786 18.3827 13.8745 18.1511 13.8745 17.9096V5.76749C13.8745 5.52597 13.7786 5.29434 13.6078 5.12356C13.437 4.95278 13.2054 4.85683 12.9639 4.85683C12.7224 4.85683 12.4907 4.95278 12.32 5.12356C12.1492 5.29434 12.0532 5.52597 12.0532 5.76749Z" fill="black"/>
<path d="M21.7669 5.76749V10.6243C21.7669 10.7048 21.7349 10.782 21.678 10.839C21.6211 10.8959 21.5438 10.9279 21.4633 10.9279H3.25023C3.00871 10.9279 2.77708 11.0238 2.6063 11.1946C2.43552 11.3654 2.33957 11.597 2.33957 11.8385C2.33957 12.08 2.43552 12.3117 2.6063 12.4825C2.77708 12.6532 3.00871 12.7492 3.25023 12.7492H21.4633C22.0269 12.7492 22.5674 12.5253 22.9658 12.1268C23.3643 11.7283 23.5882 11.1879 23.5882 10.6243V5.76749C23.5882 5.52597 23.4923 5.29434 23.3215 5.12356C23.1507 4.95278 22.9191 4.85683 22.6775 4.85683C22.436 4.85683 22.2044 4.95278 22.0336 5.12356C21.8628 5.29434 21.7669 5.52597 21.7669 5.76749Z" fill="black"/>
</svg>
