<svg width="28" height="20" viewBox="0 0 28 20" fill="none" xmlns="http://www.w3.org/2000/svg">
<path d="M27.8777 0.540002C27.7932 0.376955 27.6655 0.240313 27.5085 0.14506C27.3515 0.0498072 27.1713 -0.000379777 26.9877 2.16386e-06H0.987654C0.804026 -0.000379777 0.623838 0.0498072 0.466847 0.14506C0.309855 0.240313 0.182123 0.376955 0.0976541 0.540002C0.0217259 0.698962 -0.0108631 0.875158 0.00318506 1.05076C0.0172332 1.22636 0.07742 1.39514 0.177654 1.54L13.1777 19.54C13.2704 19.6681 13.3921 19.7723 13.5329 19.8442C13.6737 19.9161 13.8296 19.9536 13.9877 19.9536C14.1457 19.9536 14.3016 19.9161 14.4424 19.8442C14.5832 19.7723 14.7049 19.6681 14.7977 19.54L27.7977 1.54C27.8979 1.39514 27.9581 1.22636 27.9721 1.05076C27.9862 0.875158 27.9536 0.698962 27.8777 0.540002Z" fill="black"/>
</svg>
