<svg width="59" height="59" viewBox="0 0 59 59" fill="none" xmlns="http://www.w3.org/2000/svg">
<path d="M29.5 59C45.7924 59 59 45.7924 59 29.5C59 13.2076 45.7924 0 29.5 0C13.2076 0 0 13.2076 0 29.5C0 45.7924 13.2076 59 29.5 59Z" fill="#29A71A"/>
<path d="M42.5068 16.4932C39.4376 13.3933 35.3617 11.4923 31.0142 11.133C26.6668 10.7737 22.3341 11.9797 18.7976 14.5336C15.2611 17.0875 12.7536 20.821 11.7274 25.0609C10.7012 29.3007 11.224 33.7677 13.2013 37.6561L11.2603 47.0793C11.2401 47.1731 11.2396 47.27 11.2586 47.3641C11.2776 47.4581 11.3159 47.5472 11.3709 47.6257C11.4515 47.745 11.5666 47.8368 11.7008 47.8889C11.835 47.941 11.9818 47.951 12.1218 47.9174L21.3573 45.7284C25.2348 47.6556 29.6702 48.1447 33.8744 47.1086C38.0787 46.0725 41.7789 43.5785 44.3169 40.0703C46.8548 36.562 48.0658 32.2672 47.7344 27.9499C47.4029 23.6326 45.5505 19.5729 42.5068 16.4932ZM39.6272 39.4764C37.5036 41.594 34.7691 42.9919 31.8089 43.473C28.8488 43.9541 25.8123 43.4942 23.1273 42.1582L21.8401 41.5213L16.1781 42.8622L16.1948 42.7918L17.3681 37.0929L16.7379 35.8492C15.366 33.1549 14.8821 30.0955 15.3554 27.1093C15.8287 24.1231 17.235 21.3633 19.3728 19.2253C22.059 16.5399 25.7017 15.0314 29.5 15.0314C33.2983 15.0314 36.941 16.5399 39.6272 19.2253C39.6501 19.2515 39.6747 19.2762 39.701 19.299C42.3539 21.9913 43.8348 25.6232 43.821 29.4029C43.8072 33.1826 42.2997 36.8035 39.6272 39.4764Z" fill="white"/>
<path d="M39.1244 35.2961C38.4305 36.3889 37.3343 37.7265 35.9565 38.0584C33.5428 38.6417 29.8386 38.0785 25.2292 33.7809L25.1722 33.7306C21.1193 29.9727 20.0667 26.845 20.3215 24.3643C20.4623 22.9564 21.6356 21.6825 22.6245 20.8511C22.7808 20.7177 22.9662 20.6227 23.1659 20.5737C23.3655 20.5248 23.5738 20.5232 23.7742 20.5691C23.9745 20.615 24.1613 20.7072 24.3197 20.8383C24.478 20.9693 24.6035 21.1356 24.6861 21.3238L26.1779 24.6761C26.2748 24.8934 26.3108 25.1331 26.2818 25.3693C26.2529 25.6056 26.1602 25.8295 26.0136 26.017L25.2594 26.9959C25.0975 27.198 24.9999 27.4439 24.979 27.702C24.9581 27.9601 25.0149 28.2185 25.142 28.444C25.5644 29.1849 26.5768 30.2744 27.6998 31.2834C28.9603 32.4232 30.3582 33.4657 31.2432 33.8211C31.48 33.9178 31.7403 33.9414 31.9907 33.8889C32.241 33.8363 32.4699 33.7099 32.6478 33.5261L33.5227 32.6444C33.6916 32.478 33.9015 32.3592 34.1312 32.3003C34.3608 32.2415 34.602 32.2445 34.8301 32.3092L38.3735 33.3149C38.5689 33.3748 38.7481 33.4787 38.8972 33.6185C39.0464 33.7583 39.1616 33.9304 39.2341 34.1216C39.3065 34.3128 39.3343 34.518 39.3153 34.7216C39.2963 34.9251 39.231 35.1216 39.1244 35.2961Z" fill="white"/>
</svg>
