<svg width="69" height="69" viewBox="0 0 69 69" fill="none" xmlns="http://www.w3.org/2000/svg">
<path d="M34.0864 68.17C52.9564 68.17 68.1714 52.955 68.1714 34.085C68.1714 15.215 52.9564 0 34.0864 0C15.2164 0 0.00138785 15.215 0.00138785 34.085C-0.168612 52.955 15.3014 68.17 34.0864 68.17Z" fill="#FED42B"/>
<mask id="mask0_4_29" style="mask-type:luminance" maskUnits="userSpaceOnUse" x="0" y="0" width="69" height="69">
<path d="M34.0864 68.17C52.9564 68.17 68.1714 52.955 68.1714 34.085C68.1714 15.215 52.9564 0 34.0864 0C15.2164 0 0.00138785 15.215 0.00138785 34.085C-0.168612 52.955 15.3014 68.17 34.0864 68.17Z" fill="white"/>
</mask>
<g mask="url(#mask0_4_29)">
<path d="M17.3414 18.7L-12.6636 57.97L-4.67361 67.065L17.5964 37.57L15.3014 53.72L27.7964 58.055L43.0114 33.745C42.3314 38.25 41.2264 48.705 51.1714 51.935C66.8114 56.695 80.4964 28.56 86.7864 14.28L77.6914 9.52C70.6364 24.31 59.7564 40.63 55.4214 39.525C51.0864 38.42 54.9964 24.565 57.4614 15.64V15.385L43.6064 10.625L27.0314 37.655L29.3264 22.865L17.3414 18.7Z" fill="black"/>
</g>
</svg>
